<?xml version="1.0" encoding="UTF-8" ?>
<!DOCTYPE svg PUBLIC "-//W3C//DTD SVG 1.1//EN" "http://www.w3.org/Graphics/SVG/1.1/DTD/svg11.dtd">
<svg width="370pt" height="370pt" viewBox="0 0 370 370" version="1.1" xmlns="http://www.w3.org/2000/svg">
<g id="#030303ff">
<path fill="#030303" opacity="1.00" d=" M 0.00 0.00 L 0.88 0.00 C 0.89 19.67 0.88 39.33 0.88 59.00 C 0.91 68.87 0.68 78.75 1.33 88.60 C 1.40 90.90 1.60 93.19 1.82 95.47 C 3.13 89.94 4.30 84.37 5.59 78.83 C 12.13 53.89 29.09 32.53 50.24 18.18 C 55.24 15.06 60.40 12.19 65.65 9.51 C 75.71 4.51 86.98 3.40 97.56 0.00 L 119.61 0.00 C 128.27 2.87 137.43 3.82 146.00 6.96 C 157.97 12.36 169.55 18.83 179.64 27.28 C 181.16 28.67 182.66 30.18 183.53 32.07 C 183.77 33.65 182.96 35.11 182.59 36.60 C 180.40 37.15 178.18 37.55 175.95 37.89 C 172.90 34.70 169.80 31.51 166.16 28.97 C 148.73 17.38 127.94 10.86 106.99 10.59 C 85.87 11.97 64.46 18.48 47.80 31.90 C 27.27 46.76 14.65 71.08 11.69 96.01 C 11.26 103.01 11.33 110.04 11.61 117.04 C 13.39 135.92 21.77 153.77 33.66 168.38 C 41.26 176.72 49.25 185.10 59.38 190.37 C 70.20 196.02 81.57 201.66 93.98 202.35 C 96.78 202.94 100.95 202.05 102.14 205.44 C 103.33 207.69 102.47 210.37 100.97 212.25 C 96.47 212.98 91.91 212.13 87.54 211.06 C 75.95 208.09 64.25 204.65 54.11 198.10 C 33.73 186.35 17.37 167.54 9.29 145.37 C 5.48 136.20 4.05 126.33 1.86 116.71 C 1.77 118.24 1.67 119.77 1.61 121.31 C 1.28 126.20 0.90 131.09 0.88 135.99 C 0.89 213.99 0.88 292.00 0.88 370.00 L 0.00 370.00 L 0.00 0.00 Z" />
<path fill="#030303" opacity="1.00" d=" M 105.73 34.91 C 107.64 33.53 109.30 31.13 111.93 31.32 C 123.20 31.15 134.39 34.28 144.34 39.48 C 147.40 41.13 150.73 42.57 153.11 45.18 C 154.07 47.42 153.55 50.01 153.33 52.36 C 150.50 52.81 147.54 52.47 145.15 50.83 C 136.61 45.59 127.13 41.46 117.04 40.74 C 114.49 40.42 111.81 40.67 109.39 39.72 C 107.93 38.32 106.89 36.55 105.73 34.91 Z" />
<path fill="#030303" opacity="1.00" d=" M 81.45 35.91 C 85.71 33.75 89.43 39.37 87.14 42.98 C 83.73 45.72 79.42 46.93 75.61 48.98 C 63.43 55.55 53.05 65.93 47.89 78.91 C 43.78 87.68 41.91 97.38 41.49 107.00 C 42.02 121.46 46.30 136.18 55.65 147.46 C 61.57 154.46 68.25 161.17 76.59 165.23 C 82.81 168.35 89.41 170.62 95.82 173.29 C 95.68 175.28 95.63 177.29 95.25 179.26 C 90.44 182.57 84.24 179.94 79.40 177.95 C 66.76 172.89 55.51 164.47 47.34 153.57 C 42.75 146.96 38.12 140.19 35.61 132.47 C 31.00 118.62 30.06 103.50 33.41 89.26 C 36.67 77.81 42.16 66.97 49.75 57.77 C 57.89 47.59 69.42 40.57 81.45 35.91 Z" />
<path fill="#030303" opacity="1.00" d=" M 329.82 66.07 C 335.04 62.62 338.59 56.55 344.73 54.67 C 347.51 56.05 350.39 59.02 349.12 62.37 C 346.21 68.55 339.27 71.26 335.41 76.69 C 334.67 78.30 335.29 80.15 336.45 81.38 C 340.57 86.30 346.06 89.96 349.79 95.21 C 352.78 99.30 346.14 104.67 342.41 101.65 C 337.83 98.49 334.14 94.21 329.71 90.85 C 329.17 94.25 329.04 97.78 327.85 101.04 C 325.21 104.27 318.51 102.40 318.58 97.91 C 318.37 84.33 318.58 70.73 318.52 57.14 C 321.25 56.25 324.84 54.03 327.30 56.63 C 329.08 59.43 329.13 62.90 329.82 66.07 Z" />
<path fill="#030303" opacity="1.00" d=" M 189.04 57.13 C 193.81 54.88 199.28 55.12 204.38 55.77 C 207.64 56.58 211.46 57.46 213.40 60.49 C 213.77 62.91 213.59 65.37 213.59 67.81 C 208.50 69.56 203.86 66.34 198.98 65.55 C 191.64 65.61 184.94 72.56 185.54 79.98 C 186.30 86.27 191.61 91.84 198.01 92.41 C 203.27 92.65 206.85 87.37 212.03 87.28 C 214.21 88.85 217.08 91.81 215.02 94.57 C 209.58 103.09 197.37 104.59 188.77 100.34 C 180.94 96.38 174.77 88.05 175.37 78.99 C 174.67 69.72 180.59 60.73 189.04 57.13 Z" />
<path fill="#030303" opacity="1.00" d=" M 223.77 57.72 C 226.17 53.59 232.96 55.27 233.29 60.01 C 233.73 70.77 233.25 81.56 233.51 92.33 C 238.04 92.09 242.77 92.21 246.47 95.19 C 246.47 96.77 246.48 98.34 246.50 99.91 C 241.36 103.59 234.85 102.48 228.93 102.44 C 225.81 102.58 223.05 100.10 222.92 96.97 C 222.18 89.01 222.85 80.98 222.62 73.00 C 222.79 67.92 221.90 62.58 223.77 57.72 Z" />
<path fill="#030303" opacity="1.00" d=" M 253.43 57.71 C 255.24 56.96 256.92 55.65 258.92 55.48 C 260.56 56.02 262.09 56.82 263.66 57.56 C 263.34 71.36 263.90 85.19 263.42 98.99 C 262.22 104.26 254.02 103.26 253.59 98.00 C 253.18 84.58 253.61 71.14 253.43 57.71 Z" />
<path fill="#030303" opacity="1.00" d=" M 285.05 57.05 C 292.08 54.21 300.67 54.79 307.15 58.79 C 310.81 60.82 310.48 67.08 306.42 68.43 C 304.51 68.60 302.78 67.44 301.00 66.91 C 297.66 65.65 293.95 64.74 290.42 65.76 C 286.06 67.07 282.76 70.82 281.25 75.03 C 278.36 83.10 285.38 92.98 294.04 92.63 C 298.93 92.69 302.74 89.14 307.02 87.32 C 309.26 88.88 311.99 91.83 310.20 94.68 C 305.25 102.33 294.45 104.28 286.41 100.74 C 276.62 97.10 270.03 86.41 271.51 76.01 C 272.46 67.85 278.36 61.30 285.05 57.05 Z" />
<path fill="#030303" opacity="1.00" d=" M 113.50 98.08 C 119.68 96.45 125.62 99.69 131.40 101.43 C 147.29 106.53 162.76 112.95 178.96 117.05 C 196.07 123.65 213.70 128.74 230.89 135.13 C 249.62 141.17 268.06 148.05 286.77 154.14 C 307.17 161.08 327.48 168.28 347.91 175.13 C 353.22 176.97 359.06 177.88 363.58 181.47 C 367.17 184.02 369.08 188.23 370.00 192.42 L 370.00 200.73 C 368.02 205.15 365.32 209.51 361.11 212.11 C 355.56 215.51 349.12 216.97 342.97 218.88 C 335.05 221.10 327.34 224.01 319.44 226.31 C 303.20 231.12 286.96 236.01 271.08 241.92 C 265.13 244.27 258.75 245.34 252.87 247.85 C 249.62 249.14 248.55 252.75 247.51 255.75 C 245.20 263.11 242.87 270.46 240.65 277.84 C 239.71 280.42 238.90 283.32 236.69 285.12 C 234.08 286.26 230.53 285.22 229.38 282.51 C 228.90 278.05 231.15 273.88 232.46 269.74 C 235.71 261.33 237.49 252.42 240.90 244.08 C 242.46 239.88 247.35 239.01 251.08 237.66 C 264.08 233.96 276.83 229.48 289.73 225.47 C 306.82 220.48 323.54 214.31 340.62 209.29 C 346.34 207.27 352.60 206.17 357.58 202.52 C 362.01 199.44 361.38 192.06 356.91 189.33 C 353.61 187.29 349.80 186.31 346.15 185.10 C 332.59 180.96 319.36 175.83 305.90 171.38 C 298.41 168.88 290.88 166.49 283.49 163.73 C 269.98 158.61 256.03 154.78 242.50 149.71 C 223.11 143.07 203.72 136.42 184.29 129.88 C 166.85 123.56 149.11 118.12 131.69 111.74 C 126.58 110.07 121.51 107.76 116.07 107.54 C 111.49 107.26 107.41 111.48 107.54 116.00 C 107.58 121.20 109.76 126.04 111.38 130.89 C 115.92 144.29 120.96 157.52 125.15 171.04 C 133.91 195.75 142.37 220.56 150.90 245.35 C 156.83 261.57 161.87 278.11 168.00 294.27 C 172.57 308.20 177.49 322.02 182.27 335.88 C 184.68 342.67 186.15 349.95 190.10 356.08 C 192.29 359.67 197.32 360.62 200.92 358.74 C 204.00 356.68 205.15 352.91 206.44 349.63 C 210.46 337.58 214.09 325.40 218.02 313.32 C 218.98 310.64 219.92 307.83 221.85 305.67 C 223.59 303.62 227.33 303.99 228.63 306.36 C 229.62 307.79 229.50 309.62 229.23 311.25 C 228.47 315.47 226.87 319.47 225.38 323.48 C 222.12 331.91 219.09 340.45 216.52 349.13 C 215.26 353.15 214.16 357.29 211.97 360.93 C 209.31 365.21 204.78 367.81 200.38 370.00 L 192.61 370.00 C 188.93 367.50 184.84 365.32 182.13 361.68 C 179.37 357.90 178.19 353.29 176.71 348.93 C 162.18 305.69 146.88 262.72 132.13 219.56 C 128.64 207.94 123.72 196.82 120.17 185.22 C 117.03 175.56 113.75 165.95 110.19 156.45 C 106.92 147.58 104.34 138.47 100.92 129.66 C 99.04 123.98 96.48 117.86 98.33 111.84 C 100.02 104.66 106.77 100.01 113.50 98.08 Z" />
</g>
<g id="#ffffffff">
</g>
<g id="#fbe237ff">
<path fill="#fbe237" opacity="1.00" d=" M 107.54 116.00 C 107.41 111.48 111.49 107.26 116.07 107.54 C 121.51 107.76 126.58 110.07 131.69 111.74 C 149.11 118.12 166.85 123.56 184.29 129.88 C 203.72 136.42 223.11 143.07 242.50 149.71 C 256.03 154.78 269.98 158.61 283.49 163.73 C 290.88 166.49 298.41 168.88 305.90 171.38 C 319.36 175.83 332.59 180.96 346.15 185.10 C 349.80 186.31 353.61 187.29 356.91 189.33 C 361.38 192.06 362.01 199.44 357.58 202.52 C 352.60 206.17 346.34 207.27 340.62 209.29 C 323.54 214.31 306.82 220.48 289.73 225.47 C 276.83 229.48 264.08 233.96 251.08 237.66 C 247.35 239.01 242.46 239.88 240.90 244.08 C 237.49 252.42 235.71 261.33 232.46 269.74 C 231.15 273.88 228.90 278.05 229.38 282.51 C 230.53 285.22 234.08 286.26 236.69 285.12 C 238.90 283.32 239.71 280.42 240.65 277.84 C 242.87 270.46 245.20 263.11 247.51 255.75 C 248.55 252.75 249.62 249.14 252.87 247.85 C 258.75 245.34 265.13 244.27 271.08 241.92 C 286.96 236.01 303.20 231.12 319.44 226.31 C 327.34 224.01 335.05 221.10 342.97 218.88 C 349.12 216.97 355.56 215.51 361.11 212.11 C 365.32 209.51 368.02 205.15 370.00 200.73 L 370.00 204.43 C 366.99 210.25 361.52 214.38 355.28 216.19 C 339.92 221.15 324.50 225.93 309.14 230.91 C 291.62 236.14 274.50 242.61 256.90 247.59 C 254.00 248.44 250.92 249.90 249.91 253.00 C 246.45 261.95 244.15 271.31 241.06 280.40 C 239.23 286.44 231.54 288.04 229.85 294.20 C 227.84 298.78 229.09 303.75 229.95 308.43 C 230.75 312.15 229.37 315.81 228.19 319.29 C 225.06 327.98 222.33 336.82 219.37 345.57 C 217.68 350.48 216.40 355.57 214.00 360.19 C 211.82 364.38 208.08 367.46 204.20 370.00 L 200.38 370.00 C 204.78 367.81 209.31 365.21 211.97 360.93 C 214.16 357.29 215.26 353.15 216.52 349.13 C 219.09 340.45 222.12 331.91 225.38 323.48 C 226.87 319.47 228.47 315.47 229.23 311.25 C 229.50 309.62 229.62 307.79 228.63 306.36 C 227.33 303.99 223.59 303.62 221.85 305.67 C 219.92 307.83 218.98 310.64 218.02 313.32 C 214.09 325.40 210.46 337.58 206.44 349.63 C 205.15 352.91 204.00 356.68 200.92 358.74 C 197.32 360.62 192.29 359.67 190.10 356.08 C 186.15 349.95 184.68 342.67 182.27 335.88 C 177.49 322.02 172.57 308.20 168.00 294.27 C 161.87 278.11 156.83 261.57 150.90 245.35 C 142.37 220.56 133.91 195.75 125.15 171.04 C 120.96 157.52 115.92 144.29 111.38 130.89 C 109.76 126.04 107.58 121.20 107.54 116.00 Z" />
</g>
</svg>
