<?xml version="1.0" encoding="UTF-8" ?>
<!DOCTYPE svg PUBLIC "-//W3C//DTD SVG 1.1//EN" "http://www.w3.org/Graphics/SVG/1.1/DTD/svg11.dtd">
<svg width="260pt" height="211pt" viewBox="0 0 260 211" version="1.1" xmlns="http://www.w3.org/2000/svg">
<g id="#000000ff">
<path fill="#000000" opacity="1.00" d=" M 119.93 38.08 C 131.47 39.00 142.91 41.35 153.86 45.11 C 155.59 45.62 156.96 46.83 158.28 48.00 C 158.83 52.57 159.78 57.08 160.38 61.64 C 158.31 61.41 156.46 60.42 154.69 59.39 C 143.34 52.84 130.42 49.87 117.73 47.17 C 118.39 44.12 119.18 41.11 119.93 38.08 Z" />
<path fill="#000000" opacity="1.00" d=" M 54.31 40.41 C 56.22 39.94 58.17 40.12 60.06 40.57 C 55.55 43.46 51.58 47.14 48.32 51.38 C 39.47 62.99 34.28 77.30 33.06 91.81 C 32.62 93.17 32.04 94.48 31.49 95.80 C 29.90 79.41 28.19 62.61 32.26 46.43 C 39.42 43.77 46.85 41.95 54.31 40.41 Z" />
<path fill="#000000" opacity="1.00" d=" M 223.44 146.43 C 224.51 152.44 225.74 158.78 224.76 164.83 C 218.91 168.03 212.28 169.60 205.98 171.72 C 201.47 172.98 197.01 174.56 192.33 175.04 L 193.32 173.99 C 205.84 168.26 217.77 159.36 223.44 146.43 Z" />
</g>
<g id="#231f20ff">
<path fill="#231f20" opacity="1.00" d=" M 18.41 37.63 C 52.25 32.14 86.91 30.23 121.01 34.42 C 129.54 35.76 138.13 36.97 146.41 39.48 C 160.74 43.16 174.96 48.85 186.12 58.82 C 206.05 76.05 216.96 101.08 223.95 125.94 C 227.40 140.25 230.67 154.78 230.99 169.55 C 224.04 171.33 217.27 173.77 210.28 175.43 C 191.19 180.08 171.68 183.20 152.03 183.80 C 131.71 184.24 111.02 181.58 92.11 173.85 C 84.70 171.20 78.15 166.73 71.58 162.48 C 51.89 149.38 37.66 129.07 30.15 106.79 C 22.57 84.57 18.38 61.12 18.41 37.63 M 61.66 44.68 C 48.50 55.29 41.10 71.65 38.71 88.13 C 36.11 103.63 38.42 120.10 46.24 133.83 C 48.13 136.96 49.75 140.41 52.54 142.85 C 56.31 147.88 61.17 151.95 65.97 155.96 C 77.21 164.76 89.75 172.18 103.49 176.27 C 116.30 180.09 129.72 181.83 143.08 181.55 C 150.75 181.58 158.42 181.07 166.06 180.45 C 169.11 180.21 172.08 179.39 174.87 178.17 C 179.33 176.14 183.99 174.58 188.37 172.36 C 201.78 166.02 213.68 155.82 220.24 142.33 C 221.33 140.06 222.82 137.68 222.13 135.05 C 219.96 120.59 215.33 106.48 208.48 93.56 C 197.64 72.97 179.97 55.62 158.16 47.06 L 158.28 48.00 C 156.96 46.83 155.59 45.62 153.86 45.11 C 142.91 41.35 131.47 39.00 119.93 38.08 C 104.99 36.45 89.86 36.00 74.88 37.40 C 69.55 37.55 65.35 41.24 61.66 44.68 M 61.99 39.37 C 61.51 39.67 60.54 40.27 60.06 40.57 C 58.17 40.12 56.22 39.94 54.31 40.41 C 46.85 41.95 39.42 43.77 32.26 46.43 C 28.19 62.61 29.90 79.41 31.49 95.80 C 32.04 94.48 32.62 93.17 33.06 91.81 C 32.97 95.54 33.23 99.26 33.53 102.98 C 33.48 95.13 34.38 87.31 36.33 79.70 C 40.03 63.85 49.42 49.62 61.99 39.37 M 215.21 154.17 C 208.82 162.73 199.61 168.63 190.07 173.13 C 185.18 175.27 180.21 177.46 174.87 178.17 L 175.84 179.36 C 182.00 178.95 187.70 176.35 193.32 173.99 L 192.33 175.04 C 197.01 174.56 201.47 172.98 205.98 171.72 C 212.28 169.60 218.91 168.03 224.76 164.83 C 225.74 158.78 224.51 152.44 223.44 146.43 C 223.79 144.68 223.19 142.92 223.00 141.19 C 220.55 145.60 218.39 150.21 215.21 154.17 Z" />
<path fill="#231f20" opacity="1.00" d=" M 117.73 47.17 C 130.42 49.87 143.34 52.84 154.69 59.39 C 156.46 60.42 158.31 61.41 160.38 61.64 C 162.46 80.16 162.38 98.97 159.74 117.43 C 158.01 128.38 155.60 139.43 150.56 149.39 C 148.16 153.84 145.05 158.60 139.98 160.22 C 136.36 161.34 132.70 159.30 130.24 156.75 C 125.91 152.21 123.45 146.28 121.34 140.46 C 116.00 124.68 114.36 107.95 113.80 91.39 C 117.05 91.79 120.29 92.26 123.53 92.78 C 124.83 80.20 127.76 67.75 132.69 56.09 C 127.27 55.65 121.86 55.13 116.44 54.58 C 116.82 52.11 117.20 49.63 117.73 47.17 Z" />
</g>
<g id="#b89918ff">
<path fill="#b89918" opacity="1.00" d=" M 61.66 44.68 C 65.35 41.24 69.55 37.55 74.88 37.40 C 89.86 36.00 104.99 36.45 119.93 38.08 C 119.18 41.11 118.39 44.12 117.73 47.17 C 117.20 49.63 116.82 52.11 116.44 54.58 L 116.12 54.55 C 115.41 54.50 113.99 54.39 113.28 54.34 C 111.48 54.20 109.67 54.04 107.87 53.93 C 107.73 53.47 107.45 52.57 107.31 52.12 C 108.85 50.72 110.39 49.33 111.92 47.92 C 105.39 45.12 98.18 45.47 91.23 45.03 C 81.39 44.18 71.52 44.89 61.66 44.68 Z" />
<path fill="#b89918" opacity="1.00" d=" M 158.16 47.06 C 179.97 55.62 197.64 72.97 208.48 93.56 C 215.33 106.48 219.96 120.59 222.13 135.05 C 222.82 137.68 221.33 140.06 220.24 142.33 C 217.28 136.59 215.28 130.43 212.43 124.63 C 205.08 108.45 196.45 92.54 184.08 79.61 C 178.13 74.83 172.12 70.06 165.63 66.03 C 165.56 69.54 168.10 71.98 169.59 74.88 C 169.20 76.06 168.66 77.18 168.16 78.32 C 169.03 79.48 169.90 80.64 170.77 81.80 C 169.97 83.08 168.87 84.25 168.44 85.72 C 169.42 87.87 171.17 89.53 172.32 91.57 C 172.37 93.46 171.41 95.25 171.16 97.13 C 171.72 98.92 173.23 100.21 174.33 101.68 C 173.19 103.63 171.00 105.39 171.18 107.83 C 172.21 109.47 173.68 110.77 175.02 112.16 C 173.28 113.31 171.14 114.15 170.05 116.02 C 170.73 118.16 171.91 120.08 172.74 122.16 C 171.43 123.82 169.45 124.77 167.88 126.16 C 168.19 128.51 169.86 130.33 170.87 132.39 C 169.09 133.60 167.00 134.22 165.13 135.25 C 164.46 137.66 166.27 139.99 166.99 142.24 C 165.27 142.95 163.40 143.42 161.89 144.55 C 161.57 146.08 161.53 147.64 161.25 149.17 C 160.19 149.40 159.10 149.49 158.03 149.62 C 157.97 152.28 157.92 154.95 157.89 157.61 C 155.98 157.76 154.07 157.81 152.19 158.20 C 151.42 159.34 150.84 160.59 150.20 161.81 C 148.83 161.65 147.45 161.48 146.08 161.31 C 145.31 162.11 144.54 162.90 143.77 163.70 C 141.28 163.11 138.77 163.38 136.54 164.69 C 135.21 163.65 133.88 162.61 132.55 161.57 C 131.40 162.10 130.25 162.65 129.07 163.11 C 128.33 161.95 127.72 160.72 127.08 159.52 C 125.85 159.17 124.62 158.82 123.39 158.47 C 123.25 157.42 123.11 156.37 122.98 155.32 C 120.83 154.84 118.71 154.30 116.63 153.58 C 116.91 152.25 117.19 150.92 117.45 149.59 C 115.66 147.91 115.29 145.61 115.52 143.27 C 114.66 142.49 113.79 141.72 112.93 140.95 C 113.26 139.67 113.59 138.39 113.92 137.12 C 111.98 135.80 110.04 134.48 108.09 133.19 C 109.29 131.62 110.45 130.01 111.58 128.38 C 110.11 127.09 108.65 125.80 107.21 124.48 C 107.80 122.91 108.88 121.16 107.38 119.72 C 105.22 117.23 106.75 114.03 106.78 111.14 C 105.88 109.31 104.30 107.95 102.96 106.45 C 103.60 105.04 104.72 103.75 104.86 102.16 C 104.12 100.18 102.97 98.38 102.22 96.40 C 103.52 95.27 104.98 94.33 106.40 93.35 C 106.64 92.30 106.88 91.25 107.11 90.20 C 109.33 90.57 111.56 90.88 113.79 91.19 L 113.80 91.39 C 114.36 107.95 116.00 124.68 121.34 140.46 C 123.45 146.28 125.91 152.21 130.24 156.75 C 132.70 159.30 136.36 161.34 139.98 160.22 C 145.05 158.60 148.16 153.84 150.56 149.39 C 155.60 139.43 158.01 128.38 159.74 117.43 C 162.38 98.97 162.46 80.16 160.38 61.64 C 159.78 57.08 158.83 52.57 158.28 48.00 L 158.16 47.06 Z" />
</g>
<g id="#bdbec0ff">
<path fill="#bdbec0" opacity="1.00" d=" M 61.99 39.37 C 49.42 49.62 40.03 63.85 36.33 79.70 C 34.38 87.31 33.48 95.13 33.53 102.98 C 33.23 99.26 32.97 95.54 33.06 91.81 C 34.28 77.30 39.47 62.99 48.32 51.38 C 51.58 47.14 55.55 43.46 60.06 40.57 C 60.54 40.27 61.51 39.67 61.99 39.37 Z" />
<path fill="#bdbec0" opacity="1.00" d=" M 116.12 54.55 L 116.44 54.58 C 121.86 55.13 127.27 55.65 132.69 56.09 C 127.76 67.75 124.83 80.20 123.53 92.78 C 120.29 92.26 117.05 91.79 113.80 91.39 L 113.79 91.19 C 113.28 78.92 114.72 66.71 116.12 54.55 Z" />
</g>
<g id="#f5c736ff">
<path fill="#f5c736" opacity="1.00" d=" M 38.71 88.13 C 41.10 71.65 48.50 55.29 61.66 44.68 C 71.52 44.89 81.39 44.18 91.23 45.03 C 90.99 45.57 90.50 46.66 90.26 47.20 C 88.63 47.86 87.00 48.52 85.37 49.19 C 87.94 49.60 90.51 49.96 93.09 50.29 C 90.54 51.22 88.04 52.24 85.49 53.15 C 84.04 53.50 82.59 53.86 81.17 54.33 C 75.54 62.32 73.76 72.21 72.70 81.73 C 72.58 82.69 72.46 83.64 72.35 84.60 C 73.41 84.84 74.48 85.09 75.55 85.33 C 77.18 86.50 78.72 87.82 79.94 89.42 C 76.24 90.68 72.39 91.40 68.66 92.58 C 72.68 94.60 77.15 95.29 81.45 96.44 C 78.37 100.08 73.35 100.98 69.86 104.15 C 73.46 106.49 77.76 107.02 81.83 108.02 C 78.19 110.63 73.77 111.72 69.92 113.95 C 74.67 116.73 80.33 116.45 85.55 117.64 C 83.13 118.59 80.63 119.33 78.24 120.36 C 78.28 120.67 78.35 121.29 78.39 121.60 C 81.21 123.66 84.71 124.65 87.31 127.05 C 85.47 129.09 82.56 129.43 80.22 130.64 C 80.27 130.88 80.37 131.36 80.42 131.60 C 84.35 133.53 88.95 133.90 92.50 136.62 C 89.79 137.79 87.07 138.91 84.37 140.11 C 87.96 141.87 92.52 142.00 95.37 145.01 C 93.26 146.37 90.96 147.39 88.71 148.47 C 92.30 149.53 95.90 150.59 99.36 152.03 C 97.56 153.42 95.74 154.79 93.90 156.13 C 96.93 156.59 99.97 157.05 103.00 157.51 C 102.17 159.82 101.21 162.08 100.18 164.30 C 102.53 163.34 104.89 162.38 107.25 161.41 C 108.07 163.34 108.89 165.28 109.66 167.23 C 111.23 166.14 112.49 163.83 114.68 164.27 C 116.76 166.64 117.18 169.95 118.61 172.69 C 121.05 172.00 122.00 168.17 124.99 168.78 C 127.44 169.58 129.09 171.74 130.99 173.37 C 131.94 172.04 132.90 170.73 133.85 169.41 C 136.49 171.47 139.24 173.39 142.15 175.04 C 142.99 173.24 143.02 170.71 144.98 169.68 C 147.79 170.15 150.26 171.64 152.77 172.90 C 152.84 170.81 152.93 168.72 153.02 166.64 C 156.06 167.50 159.03 168.61 162.12 169.26 C 166.00 167.01 160.03 162.23 162.15 159.35 C 165.47 159.31 168.77 159.83 172.08 160.10 C 170.97 158.89 169.87 157.67 168.77 156.45 C 172.43 154.25 176.91 155.29 180.78 153.77 C 180.60 150.83 177.37 149.46 175.59 147.49 C 179.40 145.18 184.08 145.71 188.04 143.87 C 187.13 140.09 181.88 139.66 180.59 136.03 C 183.84 132.22 189.58 132.42 193.75 129.96 C 190.06 127.08 185.16 126.40 181.63 123.27 C 186.24 121.37 191.37 121.31 195.87 119.13 C 192.36 117.41 188.72 115.95 185.29 114.06 C 188.22 112.40 191.24 110.91 194.30 109.48 C 192.33 105.55 186.94 104.03 186.20 99.53 C 188.25 98.37 190.62 97.74 192.40 96.14 C 189.28 93.97 185.86 92.26 182.73 90.09 C 185.14 89.44 187.54 88.79 189.95 88.13 C 187.34 85.50 184.39 83.25 181.24 81.32 C 182.19 80.75 183.13 80.18 184.08 79.61 C 196.45 92.54 205.08 108.45 212.43 124.63 C 215.28 130.43 217.28 136.59 220.24 142.33 C 213.68 155.82 201.78 166.02 188.37 172.36 C 183.99 174.58 179.33 176.14 174.87 178.17 C 172.08 179.39 169.11 180.21 166.06 180.45 C 158.42 181.07 150.75 181.58 143.08 181.55 C 127.80 180.05 112.40 177.71 98.07 171.96 C 85.96 167.29 74.99 160.16 64.55 152.54 C 60.34 149.56 56.90 145.63 52.54 142.85 C 49.75 140.41 48.13 136.96 46.24 133.83 C 38.42 120.10 36.11 103.63 38.71 88.13 Z" />
</g>
<g id="#d5b024ff">
<path fill="#d5b024" opacity="1.00" d=" M 91.23 45.03 C 98.18 45.47 105.39 45.12 111.92 47.92 C 110.39 49.33 108.85 50.72 107.31 52.12 C 107.45 52.57 107.73 53.47 107.87 53.93 C 100.41 53.56 92.94 53.57 85.49 53.15 C 88.04 52.24 90.54 51.22 93.09 50.29 C 90.51 49.96 87.94 49.60 85.37 49.19 C 87.00 48.52 88.63 47.86 90.26 47.20 C 90.50 46.66 90.99 45.57 91.23 45.03 Z" />
<path fill="#d5b024" opacity="1.00" d=" M 165.63 66.03 C 172.12 70.06 178.13 74.83 184.08 79.61 C 183.13 80.18 182.19 80.75 181.24 81.32 C 184.39 83.25 187.34 85.50 189.95 88.13 C 187.54 88.79 185.14 89.44 182.73 90.09 C 185.86 92.26 189.28 93.97 192.40 96.14 C 190.62 97.74 188.25 98.37 186.20 99.53 C 186.94 104.03 192.33 105.55 194.30 109.48 C 191.24 110.91 188.22 112.40 185.29 114.06 C 188.72 115.95 192.36 117.41 195.87 119.13 C 191.37 121.31 186.24 121.37 181.63 123.27 C 185.16 126.40 190.06 127.08 193.75 129.96 C 189.58 132.42 183.84 132.22 180.59 136.03 C 181.88 139.66 187.13 140.09 188.04 143.87 C 184.08 145.71 179.40 145.18 175.59 147.49 C 177.37 149.46 180.60 150.83 180.78 153.77 C 176.91 155.29 172.43 154.25 168.77 156.45 C 169.87 157.67 170.97 158.89 172.08 160.10 C 168.77 159.83 165.47 159.31 162.15 159.35 C 160.03 162.23 166.00 167.01 162.12 169.26 C 159.03 168.61 156.06 167.50 153.02 166.64 C 152.93 168.72 152.84 170.81 152.77 172.90 C 150.26 171.64 147.79 170.15 144.98 169.68 C 143.02 170.71 142.99 173.24 142.15 175.04 C 139.24 173.39 136.49 171.47 133.85 169.41 C 132.90 170.73 131.94 172.04 130.99 173.37 C 129.09 171.74 127.44 169.58 124.99 168.78 C 122.00 168.17 121.05 172.00 118.61 172.69 C 117.18 169.95 116.76 166.64 114.68 164.27 C 112.49 163.83 111.23 166.14 109.66 167.23 C 108.89 165.28 108.07 163.34 107.25 161.41 C 104.89 162.38 102.53 163.34 100.18 164.30 C 101.21 162.08 102.17 159.82 103.00 157.51 C 99.97 157.05 96.93 156.59 93.90 156.13 C 95.74 154.79 97.56 153.42 99.36 152.03 C 95.90 150.59 92.30 149.53 88.71 148.47 C 90.96 147.39 93.26 146.37 95.37 145.01 C 92.52 142.00 87.96 141.87 84.37 140.11 C 87.07 138.91 89.79 137.79 92.50 136.62 C 88.95 133.90 84.35 133.53 80.42 131.60 C 80.37 131.36 80.27 130.88 80.22 130.64 C 82.56 129.43 85.47 129.09 87.31 127.05 C 84.71 124.65 81.21 123.66 78.39 121.60 C 78.35 121.29 78.28 120.67 78.24 120.36 C 80.63 119.33 83.13 118.59 85.55 117.64 C 80.33 116.45 74.67 116.73 69.92 113.95 C 73.77 111.72 78.19 110.63 81.83 108.02 C 77.76 107.02 73.46 106.49 69.86 104.15 C 73.35 100.98 78.37 100.08 81.45 96.44 C 77.15 95.29 72.68 94.60 68.66 92.58 C 72.39 91.40 76.24 90.68 79.94 89.42 C 78.72 87.82 77.18 86.50 75.55 85.33 C 84.38 86.48 93.18 87.87 101.97 89.32 C 103.68 89.61 105.40 89.91 107.11 90.20 C 106.88 91.25 106.64 92.30 106.40 93.35 C 104.98 94.33 103.52 95.27 102.22 96.40 C 102.97 98.38 104.12 100.18 104.86 102.16 C 104.72 103.75 103.60 105.04 102.96 106.45 C 104.30 107.95 105.88 109.31 106.78 111.14 C 106.75 114.03 105.22 117.23 107.38 119.72 C 108.88 121.16 107.80 122.91 107.21 124.48 C 108.65 125.80 110.11 127.09 111.58 128.38 C 110.45 130.01 109.29 131.62 108.09 133.19 C 110.04 134.48 111.98 135.80 113.92 137.12 C 113.59 138.39 113.26 139.67 112.93 140.95 C 113.79 141.72 114.66 142.49 115.52 143.27 C 115.29 145.61 115.66 147.91 117.45 149.59 C 117.19 150.92 116.91 152.25 116.63 153.58 C 118.71 154.30 120.83 154.84 122.98 155.32 C 123.11 156.37 123.25 157.42 123.39 158.47 C 124.62 158.82 125.85 159.17 127.08 159.52 C 127.72 160.72 128.33 161.95 129.07 163.11 C 130.25 162.65 131.40 162.10 132.55 161.57 C 133.88 162.61 135.21 163.65 136.54 164.69 C 138.77 163.38 141.28 163.11 143.77 163.70 C 144.54 162.90 145.31 162.11 146.08 161.31 C 147.45 161.48 148.83 161.65 150.20 161.81 C 150.84 160.59 151.42 159.34 152.19 158.20 C 154.07 157.81 155.98 157.76 157.89 157.61 C 157.92 154.95 157.97 152.28 158.03 149.62 C 159.10 149.49 160.19 149.40 161.25 149.17 C 161.53 147.64 161.57 146.08 161.89 144.55 C 163.40 143.42 165.27 142.95 166.99 142.24 C 166.27 139.99 164.46 137.66 165.13 135.25 C 167.00 134.22 169.09 133.60 170.87 132.39 C 169.86 130.33 168.19 128.51 167.88 126.16 C 169.45 124.77 171.43 123.82 172.74 122.16 C 171.91 120.08 170.73 118.16 170.05 116.02 C 171.14 114.15 173.28 113.31 175.02 112.16 C 173.68 110.77 172.21 109.47 171.18 107.83 C 171.00 105.39 173.19 103.63 174.33 101.68 C 173.23 100.21 171.72 98.92 171.16 97.13 C 171.41 95.25 172.37 93.46 172.32 91.57 C 171.17 89.53 169.42 87.87 168.44 85.72 C 168.87 84.25 169.97 83.08 170.77 81.80 C 169.90 80.64 169.03 79.48 168.16 78.32 C 168.66 77.18 169.20 76.06 169.59 74.88 C 168.10 71.98 165.56 69.54 165.63 66.03 Z" />
</g>
<g id="#ffebbeff">
<path fill="#ffebbe" opacity="1.00" d=" M 81.17 54.33 C 82.59 53.86 84.04 53.50 85.49 53.15 C 92.94 53.57 100.41 53.56 107.87 53.93 C 109.67 54.04 111.48 54.20 113.28 54.34 C 111.67 54.61 110.08 54.94 108.49 55.26 C 109.02 58.69 107.58 61.71 105.75 64.48 C 105.08 67.82 106.85 71.23 106.44 74.64 C 105.38 76.04 103.99 77.14 102.71 78.34 C 103.78 79.94 104.86 81.55 105.97 83.13 C 104.65 85.20 103.31 87.26 101.97 89.32 C 93.18 87.87 84.38 86.48 75.55 85.33 C 74.48 85.09 73.41 84.84 72.35 84.60 C 72.46 83.64 72.58 82.69 72.70 81.73 C 76.13 80.91 79.97 80.46 82.41 77.60 C 80.24 76.53 78.05 75.50 75.86 74.48 C 78.22 73.40 80.57 72.32 82.91 71.20 C 80.71 69.74 78.51 68.28 76.31 66.83 C 79.27 66.21 82.23 65.55 85.16 64.80 C 82.81 63.85 80.46 62.90 78.14 61.90 C 81.56 59.50 85.55 58.16 89.31 56.41 C 86.54 56.00 83.58 55.95 81.17 54.33 Z" />
<path fill="#ffebbe" opacity="1.00" d=" M 52.54 142.85 C 56.90 145.63 60.34 149.56 64.55 152.54 C 74.99 160.16 85.96 167.29 98.07 171.96 C 112.40 177.71 127.80 180.05 143.08 181.55 C 129.72 181.83 116.30 180.09 103.49 176.27 C 89.75 172.18 77.21 164.76 65.97 155.96 C 61.17 151.95 56.31 147.88 52.54 142.85 Z" />
</g>
<g id="#f6d479ff">
<path fill="#f6d479" opacity="1.00" d=" M 72.70 81.73 C 73.76 72.21 75.54 62.32 81.17 54.33 C 83.58 55.95 86.54 56.00 89.31 56.41 C 85.55 58.16 81.56 59.50 78.14 61.90 C 80.46 62.90 82.81 63.85 85.16 64.80 C 82.23 65.55 79.27 66.21 76.31 66.83 C 78.51 68.28 80.71 69.74 82.91 71.20 C 80.57 72.32 78.22 73.40 75.86 74.48 C 78.05 75.50 80.24 76.53 82.41 77.60 C 79.97 80.46 76.13 80.91 72.70 81.73 Z" />
</g>
<g id="#fef9e6ff">
<path fill="#fef9e6" opacity="1.00" d=" M 108.49 55.26 C 110.08 54.94 111.67 54.61 113.28 54.34 C 113.99 54.39 115.41 54.50 116.12 54.55 C 114.72 66.71 113.28 78.92 113.79 91.19 C 111.56 90.88 109.33 90.57 107.11 90.20 C 105.40 89.91 103.68 89.61 101.97 89.32 C 103.31 87.26 104.65 85.20 105.97 83.13 C 104.86 81.55 103.78 79.94 102.71 78.34 C 103.99 77.14 105.38 76.04 106.44 74.64 C 106.85 71.23 105.08 67.82 105.75 64.48 C 107.58 61.71 109.02 58.69 108.49 55.26 Z" />
</g>
<g id="#939497ff">
<path fill="#939497" opacity="1.00" d=" M 215.21 154.17 C 218.39 150.21 220.55 145.60 223.00 141.19 C 223.19 142.92 223.79 144.68 223.44 146.43 C 217.77 159.36 205.84 168.26 193.32 173.99 C 187.70 176.35 182.00 178.95 175.84 179.36 L 174.87 178.17 C 180.21 177.46 185.18 175.27 190.07 173.13 C 199.61 168.63 208.82 162.73 215.21 154.17 Z" />
</g>
</svg>
