<?xml version="1.0" encoding="UTF-8" ?>
<!DOCTYPE svg PUBLIC "-//W3C//DTD SVG 1.1//EN" "http://www.w3.org/Graphics/SVG/1.1/DTD/svg11.dtd">
<svg width="260pt" height="211pt" viewBox="0 0 260 211" version="1.1" xmlns="http://www.w3.org/2000/svg">
<g id="#000000ff">
<path fill="#000000" opacity="1.00" d=" M 101.99 47.19 C 113.79 41.33 127.15 39.55 140.10 38.02 C 140.78 41.06 141.56 44.08 142.25 47.12 C 129.84 49.91 117.21 52.72 105.99 58.94 C 103.95 59.99 102.02 61.60 99.62 61.59 C 100.36 56.78 101.11 51.98 101.99 47.19 Z" />
<path fill="#000000" opacity="1.00" d=" M 199.89 40.57 C 200.67 40.43 202.22 40.15 203.00 40.01 C 211.42 41.36 219.71 43.50 227.74 46.39 C 231.94 62.66 229.87 79.52 228.59 96.02 C 228.01 94.60 227.39 93.21 226.92 91.76 C 226.52 85.39 225.08 79.12 223.06 73.08 C 218.69 60.39 211.49 47.89 199.89 40.57 Z" />
<path fill="#000000" opacity="1.00" d=" M 34.85 164.90 C 34.65 158.66 35.57 152.49 36.43 146.34 C 42.39 159.60 54.69 168.74 67.71 174.44 C 65.77 174.68 63.78 174.65 61.91 174.03 C 52.78 171.36 43.57 168.78 34.85 164.90 Z" />
</g>
<g id="#231f20ff">
<path fill="#231f20" opacity="1.00" d=" M 139.95 34.28 C 173.74 30.31 208.03 32.22 241.56 37.59 C 241.69 59.05 237.99 80.39 231.87 100.92 C 228.02 112.34 223.63 123.73 216.69 133.68 C 213.48 138.13 210.79 143.04 206.64 146.72 C 193.46 161.01 176.42 171.53 158.00 177.62 C 157.65 177.29 156.96 176.64 156.61 176.31 C 176.11 169.98 194.01 158.35 207.57 142.95 C 218.94 129.19 223.85 110.60 221.91 92.95 C 220.24 74.76 212.73 56.54 198.47 44.62 C 194.54 41.31 190.40 37.43 184.93 37.34 C 170.02 36.04 154.97 36.48 140.10 38.02 C 127.15 39.55 113.79 41.33 101.99 47.19 C 81.65 54.73 65.00 70.51 54.07 89.03 C 45.74 103.11 40.34 118.87 37.86 135.03 C 37.21 137.66 38.61 140.07 39.76 142.32 C 46.30 155.80 58.19 165.99 71.58 172.33 C 76.03 174.61 80.79 176.15 85.29 178.30 C 74.23 176.05 63.93 170.78 54.83 164.19 C 46.85 158.32 41.31 149.91 36.96 141.15 C 36.77 142.87 36.59 144.60 36.43 146.34 C 35.57 152.49 34.65 158.66 34.85 164.90 C 43.57 168.78 52.78 171.36 61.91 174.03 C 63.78 174.65 65.77 174.68 67.71 174.44 C 72.72 176.37 77.70 178.96 83.17 179.12 C 83.70 178.92 84.76 178.51 85.29 178.30 C 95.03 181.90 105.68 180.95 115.87 181.58 C 129.46 181.89 143.10 180.18 156.18 176.44 C 155.19 179.41 151.53 178.91 149.12 179.91 C 137.23 182.40 125.09 183.80 112.95 183.89 C 84.39 183.44 55.90 178.33 28.85 169.21 C 29.74 154.06 32.64 139.10 36.45 124.43 C 41.22 107.92 47.70 91.73 57.35 77.43 C 66.82 63.93 79.31 51.99 94.83 45.83 C 109.17 39.68 124.54 36.39 139.95 34.28 M 199.16 40.12 C 207.29 47.48 214.41 56.11 219.00 66.14 C 224.20 77.70 226.45 90.42 226.53 103.05 C 226.76 99.29 226.96 95.53 226.92 91.76 C 227.39 93.21 228.01 94.60 228.59 96.02 C 229.87 79.52 231.94 62.66 227.74 46.39 C 219.71 43.50 211.42 41.36 203.00 40.01 C 202.22 40.15 200.67 40.43 199.89 40.57 C 199.71 40.46 199.34 40.24 199.16 40.12 Z" />
<path fill="#231f20" opacity="1.00" d=" M 105.99 58.94 C 117.21 52.72 129.84 49.91 142.25 47.12 C 142.78 49.59 143.19 52.08 143.60 54.57 C 138.17 55.15 132.73 55.65 127.29 56.15 C 132.28 67.77 135.16 80.25 136.46 92.81 C 139.67 92.25 142.90 91.80 146.12 91.31 C 145.80 107.65 143.98 124.11 138.94 139.71 C 136.90 145.36 134.61 151.09 130.71 155.73 C 128.30 158.47 124.88 161.05 121.02 160.47 C 115.93 159.45 112.60 154.95 110.16 150.72 C 104.93 141.20 102.50 130.46 100.63 119.85 C 97.62 100.60 97.45 80.94 99.62 61.59 C 102.02 61.60 103.95 59.99 105.99 58.94 Z" />
</g>
<g id="#b89918ff">
<path fill="#b89918" opacity="1.00" d=" M 140.10 38.02 C 154.97 36.48 170.02 36.04 184.93 37.34 C 190.40 37.43 194.54 41.31 198.47 44.62 C 188.55 45.07 178.59 44.00 168.68 45.09 C 161.87 45.74 154.30 44.52 148.21 48.29 C 149.97 49.86 152.79 51.12 152.52 53.91 C 150.62 54.00 148.73 54.14 146.84 54.29 C 146.11 54.35 144.65 54.47 143.93 54.54 L 143.60 54.57 C 143.19 52.08 142.78 49.59 142.25 47.12 C 141.56 44.08 140.78 41.06 140.10 38.02 Z" />
<path fill="#b89918" opacity="1.00" d=" M 54.07 89.03 C 65.00 70.51 81.65 54.73 101.99 47.19 C 101.11 51.98 100.36 56.78 99.62 61.59 C 97.45 80.94 97.62 100.60 100.63 119.85 C 102.50 130.46 104.93 141.20 110.16 150.72 C 112.60 154.95 115.93 159.45 121.02 160.47 C 124.88 161.05 128.30 158.47 130.71 155.73 C 134.61 151.09 136.90 145.36 138.94 139.71 C 143.98 124.11 145.80 107.65 146.12 91.31 L 146.36 91.28 C 148.51 90.95 150.64 90.50 152.79 90.15 C 153.01 90.96 153.44 92.56 153.66 93.37 C 155.01 94.34 156.43 95.24 157.64 96.40 C 157.49 98.46 155.70 100.11 155.08 102.10 C 155.26 103.71 156.45 104.99 157.17 106.39 C 155.75 107.90 154.19 109.30 153.07 111.06 C 153.15 113.35 154.12 115.58 153.88 117.87 C 153.23 119.04 152.42 120.09 151.66 121.18 C 151.98 122.32 152.40 123.44 152.61 124.62 C 151.44 126.03 149.93 127.10 148.52 128.25 C 149.35 130.11 150.60 131.72 152.01 133.17 C 150.08 134.44 147.84 135.42 146.37 137.25 C 146.46 138.48 146.72 139.69 146.93 140.91 C 144.63 142.44 144.02 144.90 144.43 147.52 C 143.81 148.07 143.20 148.61 142.59 149.16 C 142.69 150.68 142.84 152.20 142.81 153.73 C 141.21 155.04 138.92 154.70 137.01 155.12 C 136.83 156.28 136.66 157.44 136.50 158.60 C 135.38 158.75 134.27 158.91 133.15 159.07 C 132.42 160.50 131.67 161.92 130.94 163.36 C 129.82 162.71 128.70 162.07 127.58 161.43 C 126.15 162.60 124.71 163.75 123.27 164.92 C 122.20 164.23 121.12 163.56 120.05 162.89 C 118.82 163.23 117.60 163.59 116.37 163.93 C 115.56 163.05 114.74 162.17 113.93 161.30 C 112.47 161.47 111.01 161.63 109.55 161.80 C 109.01 160.54 108.45 159.29 107.91 158.03 C 105.98 157.91 104.05 157.80 102.13 157.68 C 102.10 154.91 102.07 152.14 102.02 149.38 C 100.83 149.41 99.64 149.45 98.45 149.49 C 98.37 147.70 98.62 145.83 98.00 144.11 C 96.42 143.45 94.74 143.07 93.09 142.62 C 93.83 140.43 94.72 138.29 95.19 136.02 C 94.31 133.62 91.13 133.98 89.15 133.10 C 89.57 130.50 92.25 128.77 92.06 126.06 C 90.59 124.76 88.85 123.83 87.30 122.64 C 87.55 120.22 89.39 118.34 90.07 116.05 C 89.14 114.11 86.72 113.57 85.05 112.43 C 86.33 110.65 88.36 109.22 88.92 107.05 C 88.35 104.96 86.77 103.36 85.54 101.64 C 86.72 100.26 87.94 98.92 89.22 97.64 C 88.90 95.30 86.34 92.51 88.31 90.38 C 89.38 88.67 91.38 87.32 91.60 85.20 C 90.86 84.02 89.94 82.97 89.07 81.89 C 90.06 80.61 91.05 79.34 92.05 78.07 C 91.36 77.01 90.67 75.95 89.98 74.90 C 91.98 72.26 94.87 69.73 94.24 66.05 C 87.82 70.06 81.95 74.91 76.00 79.56 C 63.56 92.45 54.96 108.41 47.60 124.59 C 44.73 130.39 42.78 136.59 39.76 142.32 C 38.61 140.07 37.21 137.66 37.86 135.03 C 40.34 118.87 45.74 103.11 54.07 89.03 Z" />
</g>
<g id="#bdbec0ff">
<path fill="#bdbec0" opacity="1.00" d=" M 199.16 40.12 C 199.34 40.24 199.71 40.46 199.89 40.57 C 211.49 47.89 218.69 60.39 223.06 73.08 C 225.08 79.12 226.52 85.39 226.92 91.76 C 226.96 95.53 226.76 99.29 226.53 103.05 C 226.45 90.42 224.20 77.70 219.00 66.14 C 214.41 56.11 207.29 47.48 199.16 40.12 Z" />
<path fill="#bdbec0" opacity="1.00" d=" M 127.29 56.15 C 132.73 55.65 138.17 55.15 143.60 54.57 L 143.93 54.54 C 145.37 66.73 146.50 78.98 146.36 91.28 L 146.12 91.31 C 142.90 91.80 139.67 92.25 136.46 92.81 C 135.16 80.25 132.28 67.77 127.29 56.15 Z" />
</g>
<g id="#d5b024ff">
<path fill="#d5b024" opacity="1.00" d=" M 148.21 48.29 C 154.30 44.52 161.87 45.74 168.68 45.09 C 168.96 45.62 169.51 46.67 169.78 47.20 C 171.33 47.85 172.91 48.46 174.46 49.12 C 171.96 49.63 169.44 49.99 166.91 50.34 C 169.55 51.08 172.06 52.18 174.57 53.27 C 167.22 53.50 159.86 53.60 152.52 53.91 C 152.79 51.12 149.97 49.86 148.21 48.29 Z" />
<path fill="#d5b024" opacity="1.00" d=" M 76.00 79.56 C 81.95 74.91 87.82 70.06 94.24 66.05 C 94.87 69.73 91.98 72.26 89.98 74.90 C 90.67 75.95 91.36 77.01 92.05 78.07 C 91.05 79.34 90.06 80.61 89.07 81.89 C 89.94 82.97 90.86 84.02 91.60 85.20 C 91.38 87.32 89.38 88.67 88.31 90.38 C 86.34 92.51 88.90 95.30 89.22 97.64 C 87.94 98.92 86.72 100.26 85.54 101.64 C 86.77 103.36 88.35 104.96 88.92 107.05 C 88.36 109.22 86.33 110.65 85.05 112.43 C 86.72 113.57 89.14 114.11 90.07 116.05 C 89.39 118.34 87.55 120.22 87.30 122.64 C 88.85 123.83 90.59 124.76 92.06 126.06 C 92.25 128.77 89.57 130.50 89.15 133.10 C 91.13 133.98 94.31 133.62 95.19 136.02 C 94.72 138.29 93.83 140.43 93.09 142.62 C 94.74 143.07 96.42 143.45 98.00 144.11 C 98.62 145.83 98.37 147.70 98.45 149.49 C 99.64 149.45 100.83 149.41 102.02 149.38 C 102.07 152.14 102.10 154.91 102.13 157.68 C 104.05 157.80 105.98 157.91 107.91 158.03 C 108.45 159.29 109.01 160.54 109.55 161.80 C 111.01 161.63 112.47 161.47 113.93 161.30 C 114.74 162.17 115.56 163.05 116.37 163.93 C 117.60 163.59 118.82 163.23 120.05 162.89 C 121.12 163.56 122.20 164.23 123.27 164.92 C 124.71 163.75 126.15 162.60 127.58 161.43 C 128.70 162.07 129.82 162.71 130.94 163.36 C 131.67 161.92 132.42 160.50 133.15 159.07 C 134.27 158.91 135.38 158.75 136.50 158.60 C 136.66 157.44 136.83 156.28 137.01 155.12 C 138.92 154.70 141.21 155.04 142.81 153.73 C 142.84 152.20 142.69 150.68 142.59 149.16 C 143.20 148.61 143.81 148.07 144.43 147.52 C 144.02 144.90 144.63 142.44 146.93 140.91 C 146.72 139.69 146.46 138.48 146.37 137.25 C 147.84 135.42 150.08 134.44 152.01 133.17 C 150.60 131.72 149.35 130.11 148.52 128.25 C 149.93 127.10 151.44 126.03 152.61 124.62 C 152.40 123.44 151.98 122.32 151.66 121.18 C 152.42 120.09 153.23 119.04 153.88 117.87 C 154.12 115.58 153.15 113.35 153.07 111.06 C 154.19 109.30 155.75 107.90 157.17 106.39 C 156.45 104.99 155.26 103.71 155.08 102.10 C 155.70 100.11 157.49 98.46 157.64 96.40 C 156.43 95.24 155.01 94.34 153.66 93.37 C 153.44 92.56 153.01 90.96 152.79 90.15 C 154.55 89.87 156.31 89.57 158.08 89.31 C 166.87 87.93 175.64 86.38 184.49 85.43 C 182.83 86.60 181.25 87.89 179.70 89.21 C 183.40 90.63 187.30 91.35 191.09 92.45 C 187.72 95.59 182.30 93.97 178.84 96.97 C 181.89 100.21 186.77 100.88 189.93 104.10 C 186.71 106.93 182.17 106.67 178.30 107.99 C 181.48 111.27 186.51 111.05 189.91 113.99 C 185.31 117.05 179.48 115.97 174.49 117.94 C 176.90 118.73 179.37 119.33 181.72 120.32 C 181.71 120.63 181.71 121.23 181.71 121.54 C 179.01 123.73 175.27 124.36 172.90 126.97 C 173.97 129.98 179.36 128.57 179.77 131.65 C 175.88 133.68 170.93 133.51 167.73 136.80 C 170.38 137.84 173.03 138.87 175.62 140.06 C 172.23 142.13 167.23 141.74 164.77 145.01 C 166.86 146.31 169.05 147.45 171.19 148.66 C 167.77 149.98 163.59 149.73 160.91 152.54 C 162.67 153.71 164.42 154.90 166.15 156.13 C 163.15 156.62 160.14 157.11 157.12 157.44 C 157.71 159.83 158.72 162.09 159.91 164.25 C 157.47 163.41 155.07 162.46 152.71 161.42 C 151.91 163.34 151.18 165.29 150.48 167.25 C 148.88 166.12 147.52 163.86 145.29 164.28 C 142.74 166.52 143.36 171.13 140.59 172.87 C 139.02 171.23 137.89 168.05 135.03 168.78 C 132.56 169.57 130.91 171.80 128.98 173.43 C 128.19 172.19 127.41 170.95 126.63 169.71 C 123.48 171.12 120.79 173.31 117.97 175.25 C 117.35 173.44 116.80 171.60 115.92 169.90 C 112.77 169.31 110.09 171.80 107.35 172.98 C 107.25 170.88 107.15 168.77 107.03 166.67 C 104.28 167.31 101.63 168.30 98.92 169.09 C 97.64 169.81 96.13 168.62 96.48 167.26 C 97.03 164.56 98.00 161.97 98.74 159.32 C 95.12 159.38 91.53 159.79 87.94 160.23 C 88.85 158.73 91.19 157.53 90.48 155.51 C 86.67 154.58 82.65 155.00 78.87 153.87 C 80.00 151.11 82.48 149.32 84.40 147.15 C 80.86 145.66 77.00 145.41 73.31 144.52 C 71.88 144.48 71.76 142.54 72.80 141.93 C 75.17 140.01 78.04 138.63 79.73 135.98 C 76.06 132.51 70.73 132.38 66.43 130.05 C 69.63 126.55 75.10 126.93 78.16 123.27 C 73.80 120.97 68.48 121.74 64.30 119.07 C 67.52 116.99 71.39 116.27 74.55 114.08 C 71.80 112.33 68.89 110.88 65.90 109.61 C 67.31 105.18 73.20 104.14 74.05 99.38 C 71.86 98.54 69.68 97.68 67.52 96.78 C 69.90 93.81 73.83 92.95 76.67 90.55 C 75.73 88.44 72.07 89.16 70.08 88.21 C 72.52 85.40 75.58 83.27 78.73 81.34 C 77.82 80.75 76.91 80.15 76.00 79.56 Z" />
</g>
<g id="#f5c736ff">
<path fill="#f5c736" opacity="1.00" d=" M 168.68 45.09 C 178.59 44.00 188.55 45.07 198.47 44.62 C 212.73 56.54 220.24 74.76 221.91 92.95 C 223.85 110.60 218.94 129.19 207.57 142.95 C 203.78 144.86 201.15 148.29 197.79 150.78 C 184.50 160.86 170.10 169.92 154.01 174.77 C 141.64 178.62 128.75 180.51 115.87 181.58 C 105.68 180.95 95.03 181.90 85.29 178.30 C 80.79 176.15 76.03 174.61 71.58 172.33 C 58.19 165.99 46.30 155.80 39.76 142.32 C 42.78 136.59 44.73 130.39 47.60 124.59 C 54.96 108.41 63.56 92.45 76.00 79.56 C 76.91 80.15 77.82 80.75 78.73 81.34 C 75.58 83.27 72.52 85.40 70.08 88.21 C 72.07 89.16 75.73 88.44 76.67 90.55 C 73.83 92.95 69.90 93.81 67.52 96.78 C 69.68 97.68 71.86 98.54 74.05 99.38 C 73.20 104.14 67.31 105.18 65.90 109.61 C 68.89 110.88 71.80 112.33 74.55 114.08 C 71.39 116.27 67.52 116.99 64.30 119.07 C 68.48 121.74 73.80 120.97 78.16 123.27 C 75.10 126.93 69.63 126.55 66.43 130.05 C 70.73 132.38 76.06 132.51 79.73 135.98 C 78.04 138.63 75.17 140.01 72.80 141.93 C 71.76 142.54 71.88 144.48 73.31 144.52 C 77.00 145.41 80.86 145.66 84.40 147.15 C 82.48 149.32 80.00 151.11 78.87 153.87 C 82.65 155.00 86.67 154.58 90.48 155.51 C 91.19 157.53 88.85 158.73 87.94 160.23 C 91.53 159.79 95.12 159.38 98.74 159.32 C 98.00 161.97 97.03 164.56 96.48 167.26 C 96.13 168.62 97.64 169.81 98.92 169.09 C 101.63 168.30 104.28 167.31 107.03 166.67 C 107.15 168.77 107.25 170.88 107.35 172.98 C 110.09 171.80 112.77 169.31 115.92 169.90 C 116.80 171.60 117.35 173.44 117.97 175.25 C 120.79 173.31 123.48 171.12 126.63 169.71 C 127.41 170.95 128.19 172.19 128.98 173.43 C 130.91 171.80 132.56 169.57 135.03 168.78 C 137.89 168.05 139.02 171.23 140.59 172.87 C 143.36 171.13 142.74 166.52 145.29 164.28 C 147.52 163.86 148.88 166.12 150.48 167.25 C 151.18 165.29 151.91 163.34 152.71 161.42 C 155.07 162.46 157.47 163.41 159.91 164.25 C 158.72 162.09 157.71 159.83 157.12 157.44 C 160.14 157.11 163.15 156.62 166.15 156.13 C 164.42 154.90 162.67 153.71 160.91 152.54 C 163.59 149.73 167.77 149.98 171.19 148.66 C 169.05 147.45 166.86 146.31 164.77 145.01 C 167.23 141.74 172.23 142.13 175.62 140.06 C 173.03 138.87 170.38 137.84 167.73 136.80 C 170.93 133.51 175.88 133.68 179.77 131.65 C 179.36 128.57 173.97 129.98 172.90 126.97 C 175.27 124.36 179.01 123.73 181.71 121.54 C 181.71 121.23 181.71 120.63 181.72 120.32 C 179.37 119.33 176.90 118.73 174.49 117.94 C 179.48 115.97 185.31 117.05 189.91 113.99 C 186.51 111.05 181.48 111.27 178.30 107.99 C 182.17 106.67 186.71 106.93 189.93 104.10 C 186.77 100.88 181.89 100.21 178.84 96.97 C 182.30 93.97 187.72 95.59 191.09 92.45 C 187.30 91.35 183.40 90.63 179.70 89.21 C 181.25 87.89 182.83 86.60 184.49 85.43 C 186.06 84.77 188.35 84.19 187.39 81.90 C 186.28 72.21 184.41 62.22 178.72 54.06 C 177.34 53.78 175.95 53.52 174.57 53.27 C 172.06 52.18 169.55 51.08 166.91 50.34 C 169.44 49.99 171.96 49.63 174.46 49.12 C 172.91 48.46 171.33 47.85 169.78 47.20 C 169.51 46.67 168.96 45.62 168.68 45.09 Z" />
</g>
<g id="#ffebbeff">
<path fill="#ffebbe" opacity="1.00" d=" M 152.52 53.91 C 159.86 53.60 167.22 53.50 174.57 53.27 C 175.95 53.52 177.34 53.78 178.72 54.06 C 176.90 56.54 173.42 55.68 170.79 56.39 C 174.27 58.62 178.71 58.98 181.73 61.95 C 179.58 62.95 177.35 63.79 175.09 64.53 C 175.37 64.76 175.93 65.23 176.21 65.46 C 178.73 65.63 181.23 66.04 183.66 66.77 C 181.52 68.29 179.33 69.72 177.15 71.17 C 179.36 72.47 181.77 73.37 184.21 74.15 C 182.14 75.32 180.04 76.43 177.90 77.46 C 179.62 80.97 184.22 80.60 187.39 81.90 C 188.35 84.19 186.06 84.77 184.49 85.43 C 175.64 86.38 166.87 87.93 158.08 89.31 C 156.66 87.26 155.30 85.16 153.98 83.03 C 155.13 81.63 156.25 80.19 157.41 78.79 C 156.09 77.37 154.76 75.98 153.40 74.62 C 153.79 71.17 154.25 67.72 154.68 64.27 C 153.61 63.06 152.54 61.87 151.48 60.66 C 151.53 58.90 151.56 57.13 151.62 55.37 C 150.03 54.99 148.44 54.61 146.84 54.29 C 148.73 54.14 150.62 54.00 152.52 53.91 Z" />
<path fill="#ffebbe" opacity="1.00" d=" M 197.79 150.78 C 201.15 148.29 203.78 144.86 207.57 142.95 C 194.01 158.35 176.11 169.98 156.61 176.31 L 156.18 176.44 C 143.10 180.18 129.46 181.89 115.87 181.58 C 128.75 180.51 141.64 178.62 154.01 174.77 C 170.10 169.92 184.50 160.86 197.79 150.78 Z" />
</g>
<g id="#f6d479ff">
<path fill="#f6d479" opacity="1.00" d=" M 178.72 54.06 C 184.41 62.22 186.28 72.21 187.39 81.90 C 184.22 80.60 179.62 80.97 177.90 77.46 C 180.04 76.43 182.14 75.32 184.21 74.15 C 181.77 73.37 179.36 72.47 177.15 71.17 C 179.33 69.72 181.52 68.29 183.66 66.77 C 181.23 66.04 178.73 65.63 176.21 65.46 C 175.93 65.23 175.37 64.76 175.09 64.53 C 177.35 63.79 179.58 62.95 181.73 61.95 C 178.71 58.98 174.27 58.62 170.79 56.39 C 173.42 55.68 176.90 56.54 178.72 54.06 Z" />
</g>
<g id="#fef9e6ff">
<path fill="#fef9e6" opacity="1.00" d=" M 143.93 54.54 C 144.65 54.47 146.11 54.35 146.84 54.29 C 148.44 54.61 150.03 54.99 151.62 55.37 C 151.56 57.13 151.53 58.90 151.48 60.66 C 152.54 61.87 153.61 63.06 154.68 64.27 C 154.25 67.72 153.79 71.17 153.40 74.62 C 154.76 75.98 156.09 77.37 157.41 78.79 C 156.25 80.19 155.13 81.63 153.98 83.03 C 155.30 85.16 156.66 87.26 158.08 89.31 C 156.31 89.57 154.55 89.87 152.79 90.15 C 150.64 90.50 148.51 90.95 146.36 91.28 C 146.50 78.98 145.37 66.73 143.93 54.54 Z" />
</g>
<g id="#939497ff">
<path fill="#939497" opacity="1.00" d=" M 36.96 141.15 C 41.31 149.91 46.85 158.32 54.83 164.19 C 63.93 170.78 74.23 176.05 85.29 178.30 C 84.76 178.51 83.70 178.92 83.17 179.12 C 77.70 178.96 72.72 176.37 67.71 174.44 C 54.69 168.74 42.39 159.60 36.43 146.34 C 36.59 144.60 36.77 142.87 36.96 141.15 Z" />
</g>
</svg>
