<?xml version="1.0" encoding="UTF-8" ?>
<!DOCTYPE svg PUBLIC "-//W3C//DTD SVG 1.1//EN" "http://www.w3.org/Graphics/SVG/1.1/DTD/svg11.dtd">
<svg width="529pt" height="462pt" viewBox="0 0 529 462" version="1.1" xmlns="http://www.w3.org/2000/svg">
<g id="#ace8fdff">
</g>
<g id="#010101ff">
<path fill="#010101" opacity="1.00" d=" M 56.51 0.00 L 468.91 0.00 C 468.83 9.02 468.08 18.00 467.57 27.00 C 466.11 67.38 463.33 107.69 461.55 148.06 C 459.34 187.36 454.60 226.57 446.37 265.08 C 463.83 266.09 481.25 267.74 498.71 268.63 C 498.75 269.14 498.82 270.16 498.85 270.67 C 492.23 270.17 485.62 269.61 478.99 269.24 C 468.01 268.02 456.89 268.15 445.96 266.43 C 444.90 270.74 443.77 275.04 442.44 279.27 C 468.12 284.49 493.78 289.79 519.41 295.26 C 521.26 295.62 523.29 296.05 524.36 297.79 C 519.22 297.30 514.25 295.78 509.18 294.87 C 489.51 290.73 469.83 286.70 450.14 282.67 C 447.62 282.18 445.10 281.64 442.55 281.37 C 440.60 284.99 439.86 289.21 438.51 293.11 C 457.11 300.51 475.16 309.24 493.70 316.81 C 493.69 317.31 493.66 318.31 493.64 318.81 C 478.57 312.55 463.73 305.75 448.69 299.41 C 445.41 298.02 442.23 296.38 438.90 295.11 C 437.40 295.62 437.41 297.44 436.82 298.66 C 432.07 313.11 425.81 327.03 418.59 340.40 C 416.84 343.06 418.47 345.99 419.16 348.69 C 421.03 354.61 422.63 360.61 424.26 366.60 C 429.47 385.37 434.97 404.06 440.20 422.82 C 441.70 428.80 444.58 434.73 443.68 441.04 C 443.44 443.71 441.20 445.67 438.81 446.54 C 435.54 447.88 432.02 446.48 428.93 445.28 C 411.47 437.09 394.26 428.38 376.74 420.31 C 367.47 415.98 358.39 411.17 349.03 407.09 C 343.06 408.93 337.42 411.72 331.44 413.57 C 321.15 416.85 310.61 419.71 299.83 420.74 L 299.07 421.24 C 296.36 421.34 293.64 421.56 290.98 422.15 C 275.99 422.80 260.96 424.40 245.99 422.67 C 232.94 422.61 220.06 420.20 207.30 417.70 C 194.71 414.77 182.36 410.58 170.95 404.44 C 165.36 405.75 160.42 408.92 155.23 411.26 C 137.36 419.58 119.67 428.26 101.90 436.78 C 97.84 438.60 93.56 441.12 88.94 440.15 C 83.96 438.50 82.25 432.32 83.88 427.71 C 91.85 398.70 100.38 369.84 108.50 340.86 C 109.16 338.98 108.52 337.02 107.74 335.29 C 99.84 317.99 94.64 299.61 90.34 281.12 C 90.08 280.27 89.79 279.43 89.47 278.61 C 83.01 281.54 76.11 283.29 69.44 285.65 C 56.66 290.02 43.74 294.01 31.10 298.77 C 30.66 295.91 34.09 295.92 35.91 294.92 C 53.57 288.69 71.50 283.26 89.10 276.86 C 88.60 273.00 87.74 269.21 87.05 265.39 C 84.98 265.49 82.91 265.61 80.85 265.79 C 59.26 268.55 37.60 270.78 15.99 273.37 C 11.37 273.71 6.83 274.88 2.17 274.68 C 3.08 273.92 3.92 272.88 5.21 272.86 C 21.48 270.91 37.75 269.04 54.01 267.11 C 64.97 265.98 75.87 264.25 86.84 263.26 C 86.72 262.70 86.48 261.58 86.36 261.02 C 85.75 258.25 85.27 255.46 84.88 252.66 C 84.91 251.54 84.93 250.42 84.95 249.31 C 84.73 249.36 84.28 249.46 84.06 249.50 C 84.04 249.28 84.02 248.82 84.00 248.59 C 81.54 231.05 79.20 213.48 76.66 195.94 C 75.62 184.55 73.22 173.35 71.99 161.99 C 70.26 149.35 68.28 136.74 67.29 124.02 C 64.51 101.40 63.02 78.66 60.73 55.99 C 59.68 37.30 57.63 18.69 56.51 0.00 M 85.94 249.11 C 91.00 252.08 97.51 251.35 103.12 250.66 C 97.71 248.53 91.65 248.58 85.94 249.11 M 243.29 251.60 C 243.02 255.19 247.84 255.14 249.80 257.19 C 254.73 262.08 256.38 269.50 256.49 276.21 C 249.94 279.33 242.80 283.27 239.56 290.07 C 240.35 292.25 241.64 294.31 243.91 295.18 C 250.51 298.21 258.11 298.52 265.22 297.61 C 269.25 296.79 273.80 295.90 276.45 292.44 C 278.14 290.69 276.61 288.14 275.40 286.57 C 271.60 281.80 266.49 277.86 260.63 276.02 C 261.06 268.91 262.66 261.01 268.19 256.02 C 269.87 254.66 274.42 254.87 273.28 251.79 C 265.60 251.26 261.47 258.87 258.68 264.83 C 256.06 258.43 251.18 251.02 243.29 251.60 M 93.73 262.40 C 96.64 264.05 100.11 263.05 103.25 262.80 C 100.91 260.00 96.75 262.26 93.73 262.40 M 424.91 263.29 C 425.81 264.02 426.56 265.28 427.91 265.12 C 432.37 265.40 436.86 265.03 441.31 265.53 C 442.80 265.90 444.05 264.97 445.24 264.23 C 438.46 263.96 431.68 263.85 424.91 263.29 M 184.13 265.22 C 172.13 268.02 162.97 279.66 163.36 292.03 C 162.95 307.76 178.65 321.29 194.17 318.65 C 207.62 317.30 217.99 304.36 217.58 291.08 C 217.36 280.95 210.99 271.15 201.76 266.95 C 196.37 264.21 189.96 263.97 184.13 265.22 M 324.54 265.82 C 310.96 269.72 302.49 285.58 306.67 299.04 C 309.82 311.28 322.52 320.03 335.07 318.75 C 349.70 317.95 361.71 303.40 359.94 288.91 C 359.17 281.89 355.41 275.44 350.25 270.73 C 343.33 264.68 333.18 263.00 324.54 265.82 M 98.92 273.80 C 96.18 274.71 93.06 274.78 90.84 276.86 C 92.62 277.21 94.40 276.86 96.05 276.18 C 99.11 274.97 102.40 274.44 105.39 273.07 C 103.20 272.36 101.02 273.16 98.92 273.80 M 424.90 276.22 C 428.39 278.74 432.92 278.27 436.94 279.17 C 438.38 279.20 440.95 280.22 441.46 278.14 C 435.95 277.47 430.48 276.27 424.90 276.22 M 420.50 285.54 L 421.10 286.79 C 425.21 289.16 429.84 290.55 434.21 292.39 C 434.64 292.18 435.49 291.76 435.91 291.54 C 430.64 289.87 425.95 286.63 420.50 285.54 M 121.04 359.14 C 117.36 370.35 114.43 381.79 111.21 393.14 L 111.03 393.27 C 109.94 398.96 107.27 404.28 106.67 410.06 C 106.23 412.74 109.08 413.80 111.14 414.29 C 125.20 408.19 138.76 401.01 152.78 394.81 C 152.74 394.51 152.66 393.90 152.62 393.59 C 145.24 387.57 138.40 380.91 131.75 374.13 C 127.99 369.28 123.99 364.56 121.04 359.14 M 405.39 360.20 C 404.50 361.42 403.86 362.78 403.00 364.01 C 392.69 377.02 380.13 388.10 366.45 397.45 C 381.53 404.72 396.75 411.81 411.84 419.12 C 414.00 420.00 416.68 421.80 418.87 420.02 C 422.50 417.70 419.77 413.05 419.06 409.83 C 415.44 396.61 411.44 383.48 407.94 370.23 L 407.68 370.25 C 407.04 367.75 406.31 365.28 405.91 362.74 L 405.82 361.75 C 405.71 361.36 405.49 360.59 405.39 360.20 Z" />
</g>
<g id="#162c34ff">
<path fill="#162c34" opacity="1.00" d=" M 29.58 248.37 C 47.71 247.85 65.87 248.73 84.00 248.59 C 84.02 248.82 84.04 249.28 84.06 249.50 C 84.28 249.46 84.73 249.36 84.95 249.31 C 84.93 250.42 84.91 251.54 84.88 252.66 C 84.15 251.96 83.45 251.24 82.70 250.57 C 78.15 250.97 73.58 250.62 69.02 250.56 C 55.98 250.21 42.90 250.65 29.88 249.91 C 29.80 249.52 29.65 248.75 29.58 248.37 Z" />
</g>
<g id="#151414ff">
<path fill="#151414" opacity="1.00" d=" M 85.94 249.11 C 91.65 248.58 97.71 248.53 103.12 250.66 C 97.51 251.35 91.00 252.08 85.94 249.11 Z" />
</g>
<g id="#ffffffff">
<path fill="#ffffff" opacity="1.00" d=" M 243.29 251.60 C 251.18 251.02 256.06 258.43 258.68 264.83 C 261.47 258.87 265.60 251.26 273.28 251.79 C 274.42 254.87 269.87 254.66 268.19 256.02 C 262.66 261.01 261.06 268.91 260.63 276.02 C 266.49 277.86 271.60 281.80 275.40 286.57 C 276.61 288.14 278.14 290.69 276.45 292.44 C 273.80 295.90 269.25 296.79 265.22 297.61 C 258.11 298.52 250.51 298.21 243.91 295.18 C 241.64 294.31 240.35 292.25 239.56 290.07 C 242.80 283.27 249.94 279.33 256.49 276.21 C 256.38 269.50 254.73 262.08 249.80 257.19 C 247.84 255.14 243.02 255.19 243.29 251.60 Z" />
<path fill="#ffffff" opacity="1.00" d=" M 179.25 294.23 C 183.35 291.88 189.83 294.76 189.15 299.94 C 189.61 304.17 184.98 307.41 181.09 306.16 C 175.94 304.85 174.21 296.81 179.25 294.23 Z" />
</g>
<g id="#c0ebf4ff">
<path fill="#c0ebf4" opacity="1.00" d=" M 53.38 265.29 C 64.29 263.25 75.40 262.73 86.36 261.02 C 86.48 261.58 86.72 262.70 86.84 263.26 C 75.87 264.25 64.97 265.98 54.01 267.11 C 53.86 266.65 53.54 265.74 53.38 265.29 Z" />
</g>
<g id="#1d1d1aff">
<path fill="#1d1d1a" opacity="1.00" d=" M 93.73 262.40 C 96.75 262.26 100.91 260.00 103.25 262.80 C 100.11 263.05 96.64 264.05 93.73 262.40 Z" />
</g>
<g id="#1a1a18ff">
<path fill="#1a1a18" opacity="1.00" d=" M 424.91 263.29 C 431.68 263.85 438.46 263.96 445.24 264.23 C 444.05 264.97 442.80 265.90 441.31 265.53 C 436.86 265.03 432.37 265.40 427.91 265.12 C 426.56 265.28 425.81 264.02 424.91 263.29 Z" />
</g>
<g id="#fffeffff">
<path fill="#fffeff" opacity="1.00" d=" M 184.13 265.22 C 189.96 263.97 196.37 264.21 201.76 266.95 C 210.99 271.15 217.36 280.95 217.58 291.08 C 217.99 304.36 207.62 317.30 194.17 318.65 C 178.65 321.29 162.95 307.76 163.36 292.03 C 162.97 279.66 172.13 268.02 184.13 265.22 M 184.55 267.87 C 176.65 269.60 170.36 275.97 167.59 283.41 C 165.45 290.33 165.94 298.06 169.33 304.51 C 173.13 310.73 179.83 314.84 186.97 316.00 C 194.79 317.00 203.09 314.28 208.45 308.42 C 217.20 299.09 217.14 282.28 207.04 273.93 C 201.22 268.13 192.47 266.10 184.55 267.87 Z" />
</g>
<g id="#fffffdff">
<path fill="#fffffd" opacity="1.00" d=" M 324.54 265.82 C 333.18 263.00 343.33 264.68 350.25 270.73 C 355.41 275.44 359.17 281.89 359.94 288.91 C 361.71 303.40 349.70 317.95 335.07 318.75 C 322.52 320.03 309.82 311.28 306.67 299.04 C 302.49 285.58 310.96 269.72 324.54 265.82 M 317.46 272.46 C 306.67 280.98 305.36 299.07 315.30 308.70 C 320.47 314.33 328.53 317.12 336.07 315.85 C 344.16 314.74 351.55 309.35 354.98 301.93 C 357.68 296.36 357.86 289.88 356.19 283.98 C 353.70 277.91 349.33 272.51 343.36 269.60 C 335.09 265.77 324.61 266.64 317.46 272.46 Z" />
</g>
<g id="#d0f6feff">
<path fill="#d0f6fe" opacity="1.00" d=" M 80.85 265.79 C 82.91 265.61 84.98 265.49 87.05 265.39 C 87.74 269.21 88.60 273.00 89.10 276.86 C 71.50 283.26 53.57 288.69 35.91 294.92 C 35.86 294.48 35.74 293.60 35.68 293.16 C 41.36 291.37 46.97 289.40 52.68 287.72 C 55.85 286.78 58.68 284.92 61.95 284.28 C 68.59 283.04 74.46 279.47 80.95 277.72 C 83.36 277.19 85.29 275.64 87.03 273.97 C 86.45 270.29 84.22 267.36 80.85 265.79 Z" />
</g>
<g id="#363737ff">
<path fill="#363737" opacity="1.00" d=" M 184.55 267.87 C 192.47 266.10 201.22 268.13 207.04 273.93 C 217.14 282.28 217.20 299.09 208.45 308.42 C 203.09 314.28 194.79 317.00 186.97 316.00 C 179.83 314.84 173.13 310.73 169.33 304.51 C 165.94 298.06 165.45 290.33 167.59 283.41 C 170.36 275.97 176.65 269.60 184.55 267.87 M 179.25 294.23 C 174.21 296.81 175.94 304.85 181.09 306.16 C 184.98 307.41 189.61 304.17 189.15 299.94 C 189.83 294.76 183.35 291.88 179.25 294.23 Z" />
<path fill="#363737" opacity="1.00" d=" M 317.46 272.46 C 324.61 266.64 335.09 265.77 343.36 269.60 C 349.33 272.51 353.70 277.91 356.19 283.98 C 357.86 289.88 357.68 296.36 354.98 301.93 C 351.55 309.35 344.16 314.74 336.07 315.85 C 328.53 317.12 320.47 314.33 315.30 308.70 C 305.36 299.07 306.67 280.98 317.46 272.46 M 321.33 294.27 C 318.54 296.01 317.92 299.92 319.33 302.75 C 320.84 307.34 328.11 307.67 330.53 303.72 C 331.37 301.91 331.35 299.81 331.21 297.86 C 330.31 293.76 324.68 292.20 321.33 294.27 Z" />
</g>
<g id="#1e1e1cff">
<path fill="#1e1e1c" opacity="1.00" d=" M 98.92 273.80 C 101.02 273.16 103.20 272.36 105.39 273.07 C 102.40 274.44 99.11 274.97 96.05 276.18 C 94.40 276.86 92.62 277.21 90.84 276.86 C 93.06 274.78 96.18 274.71 98.92 273.80 Z" />
</g>
<g id="#1b1b1bff">
<path fill="#1b1b1b" opacity="1.00" d=" M 424.90 276.22 C 430.48 276.27 435.95 277.47 441.46 278.14 C 440.95 280.22 438.38 279.20 436.94 279.17 C 432.92 278.27 428.39 278.74 424.90 276.22 Z" />
</g>
<g id="#b9f1feff">
<path fill="#b9f1fe" opacity="1.00" d=" M 438.51 293.11 C 439.86 289.21 440.60 284.99 442.55 281.37 C 445.10 281.64 447.62 282.18 450.14 282.67 C 448.77 283.80 447.06 284.69 446.10 286.22 C 445.61 288.51 445.38 290.90 445.57 293.24 C 449.90 296.80 455.56 298.20 460.65 300.39 C 470.38 304.68 479.99 309.25 489.94 313.03 C 491.65 313.77 493.94 314.46 493.70 316.81 C 475.16 309.24 457.11 300.51 438.51 293.11 Z" />
</g>
<g id="#1d1d1dff">
<path fill="#1d1d1d" opacity="1.00" d=" M 420.50 285.54 C 425.95 286.63 430.64 289.87 435.91 291.54 C 435.49 291.76 434.64 292.18 434.21 292.39 C 429.84 290.55 425.21 289.16 421.10 286.79 L 420.50 285.54 Z" />
</g>
<g id="#feffffff">
<path fill="#feffff" opacity="1.00" d=" M 321.33 294.27 C 324.68 292.20 330.31 293.76 331.21 297.86 C 331.35 299.81 331.37 301.91 330.53 303.72 C 328.11 307.67 320.84 307.34 319.33 302.75 C 317.92 299.92 318.54 296.01 321.33 294.27 Z" />
</g>
<g id="#ccf4ffff">
<path fill="#ccf4ff" opacity="1.00" d=" M 436.82 298.66 C 437.41 297.44 437.40 295.62 438.90 295.11 C 442.23 296.38 445.41 298.02 448.69 299.41 C 446.21 299.25 443.75 298.94 441.33 298.39 C 439.04 300.86 436.64 303.42 435.81 306.81 C 432.08 318.43 425.94 329.02 420.95 340.10 C 418.42 344.67 421.19 349.56 423.14 353.76 C 425.24 357.72 424.50 362.33 424.26 366.60 C 422.63 360.61 421.03 354.61 419.16 348.69 C 418.47 345.99 416.84 343.06 418.59 340.40 C 425.81 327.03 432.07 313.11 436.82 298.66 Z" />
</g>
<g id="#fbd1e0ff">
<path fill="#fbd1e0" opacity="1.00" d=" M 121.04 359.14 C 123.99 364.56 127.99 369.28 131.75 374.13 C 127.93 372.77 126.01 369.17 123.65 366.18 C 123.02 365.22 121.74 365.37 120.77 365.11 C 119.80 371.21 117.45 376.94 115.79 382.86 C 114.65 386.46 115.43 391.39 111.21 393.14 C 114.43 381.79 117.36 370.35 121.04 359.14 Z" />
<path fill="#fbd1e0" opacity="1.00" d=" M 405.39 360.20 C 405.49 360.59 405.71 361.36 405.82 361.75 L 405.91 362.74 C 406.31 365.28 407.04 367.75 407.68 370.25 C 406.15 370.39 404.54 370.32 403.10 370.93 C 402.31 371.98 401.69 373.13 401.03 374.26 C 399.74 373.86 398.29 373.19 397.11 374.22 C 392.46 377.47 389.24 382.33 384.78 385.82 C 380.23 389.83 374.59 392.76 371.07 397.83 C 380.74 401.99 389.98 407.10 399.71 411.15 C 405.52 413.39 410.66 417.36 416.89 418.46 C 418.36 417.83 418.44 415.85 419.18 414.61 C 417.44 415.07 415.66 415.45 413.85 415.28 C 415.50 413.38 417.26 411.59 419.06 409.83 C 419.77 413.05 422.50 417.70 418.87 420.02 C 416.68 421.80 414.00 420.00 411.84 419.12 C 396.75 411.81 381.53 404.72 366.45 397.45 C 380.13 388.10 392.69 377.02 403.00 364.01 C 403.86 362.78 404.50 361.42 405.39 360.20 Z" />
</g>
<g id="#fabacdff">
<path fill="#fabacd" opacity="1.00" d=" M 120.77 365.11 C 121.74 365.37 123.02 365.22 123.65 366.18 C 126.01 369.17 127.93 372.77 131.75 374.13 C 138.40 380.91 145.24 387.57 152.62 393.59 C 152.66 393.90 152.74 394.51 152.78 394.81 C 138.76 401.01 125.20 408.19 111.14 414.29 C 109.08 413.80 106.23 412.74 106.67 410.06 C 107.27 404.28 109.94 398.96 111.03 393.27 L 111.21 393.14 C 115.43 391.39 114.65 386.46 115.79 382.86 C 117.45 376.94 119.80 371.21 120.77 365.11 Z" />
</g>
<g id="#fcbccdff">
<path fill="#fcbccd" opacity="1.00" d=" M 403.10 370.93 C 404.54 370.32 406.15 370.39 407.68 370.25 L 407.94 370.23 C 411.44 383.48 415.44 396.61 419.06 409.83 C 417.26 411.59 415.50 413.38 413.85 415.28 C 415.66 415.45 417.44 415.07 419.18 414.61 C 418.44 415.85 418.36 417.83 416.89 418.46 C 410.66 417.36 405.52 413.39 399.71 411.15 C 389.98 407.10 380.74 401.99 371.07 397.83 C 374.59 392.76 380.23 389.83 384.78 385.82 C 389.24 382.33 392.46 377.47 397.11 374.22 C 398.29 373.19 399.74 373.86 401.03 374.26 C 401.69 373.13 402.31 371.98 403.10 370.93 Z" />
</g>
</svg>
