<?xml version="1.0" encoding="UTF-8" ?>
<!DOCTYPE svg PUBLIC "-//W3C//DTD SVG 1.1//EN" "http://www.w3.org/Graphics/SVG/1.1/DTD/svg11.dtd">
<svg width="529pt" height="462pt" viewBox="0 0 529 462" version="1.1" xmlns="http://www.w3.org/2000/svg">
<g id="#aae5f8ff">
</g>
<g id="#ffffffff">
<path fill="#ffffff" opacity="1.00" d=" M 89.12 21.08 C 92.97 18.23 97.78 20.86 101.63 22.38 C 125.90 33.64 150.01 45.23 174.04 56.99 C 176.93 58.28 180.26 60.17 183.38 58.37 C 203.03 49.44 224.50 45.00 245.99 43.73 C 255.99 43.42 266.01 43.44 276.01 43.63 C 303.86 44.54 332.27 49.28 357.08 62.54 C 363.20 59.42 369.58 56.85 375.65 53.64 C 388.04 47.21 400.86 41.65 413.32 35.36 C 418.99 32.57 424.72 29.88 430.62 27.63 C 433.07 26.81 435.79 25.75 438.38 26.61 C 440.42 27.65 442.26 29.57 442.59 31.92 C 443.23 36.77 441.97 41.61 440.70 46.26 C 435.97 63.19 430.68 79.96 426.43 97.02 C 424.25 107.24 420.43 117.01 417.69 127.08 C 422.42 138.06 427.06 149.11 430.39 160.62 C 433.21 169.06 434.54 177.93 437.54 186.32 C 431.59 189.13 424.22 189.34 419.25 193.91 C 425.85 193.51 431.76 190.18 438.09 188.59 C 438.55 192.41 439.02 196.23 439.48 200.06 C 434.73 200.90 429.94 201.43 425.16 201.94 C 423.81 201.88 423.44 203.38 422.78 204.24 C 427.56 203.93 432.29 203.11 437.04 202.45 C 437.75 202.49 439.19 202.57 439.91 202.61 C 441.60 206.20 441.53 210.28 441.74 214.15 C 436.10 214.34 430.45 213.50 424.84 214.18 C 424.38 214.65 423.45 215.60 422.99 216.08 C 429.67 216.17 436.35 216.09 443.02 216.37 C 445.58 241.02 449.87 265.45 452.98 290.03 C 454.53 302.78 456.90 315.42 457.92 328.23 C 460.61 348.34 462.24 368.56 464.22 388.74 C 465.31 413.22 468.70 437.53 469.90 462.00 L 61.20 462.00 C 61.63 444.97 62.99 427.97 63.55 410.94 C 64.59 387.97 65.85 365.01 67.29 342.06 C 67.80 327.18 68.47 312.30 69.77 297.46 C 71.11 274.50 74.17 251.69 77.87 229.01 C 79.39 219.47 81.68 210.07 83.04 200.51 C 88.71 200.83 94.35 201.47 100.01 201.95 C 101.57 202.26 103.11 201.85 104.27 200.75 C 97.68 198.75 90.56 199.54 83.76 198.51 C 84.81 194.49 85.73 190.43 86.93 186.45 C 87.43 186.53 88.43 186.70 88.92 186.78 C 94.71 187.85 100.37 189.60 106.23 190.27 C 105.54 188.84 104.45 188.01 102.93 187.79 C 81.26 182.71 59.38 178.58 37.64 173.80 C 42.10 173.77 46.46 174.67 50.73 175.86 C 63.00 178.32 75.22 180.95 87.61 182.78 C 88.78 179.44 89.75 176.05 90.55 172.61 C 96.78 175.29 102.87 178.32 109.30 180.53 C 109.29 180.04 109.29 179.06 109.28 178.57 C 94.78 172.09 80.30 165.55 65.69 159.30 C 61.20 157.30 56.76 155.14 52.01 153.83 C 50.93 153.62 49.98 153.06 49.21 152.29 C 53.63 152.91 58.11 153.67 62.01 155.99 C 71.63 161.26 81.84 165.45 92.20 169.02 C 95.68 156.99 100.82 145.52 106.40 134.33 C 108.19 130.58 110.85 127.12 111.64 122.97 C 111.66 118.33 109.55 114.06 108.37 109.65 C 104.64 96.43 100.49 83.34 96.89 70.09 C 93.61 57.70 89.05 45.63 86.83 32.98 C 86.37 29.04 85.47 23.83 89.12 21.08 M 109.49 45.47 C 108.87 53.91 112.44 61.77 114.29 69.84 C 117.99 81.49 120.93 93.35 124.48 105.04 C 130.30 97.44 136.47 90.03 143.76 83.78 C 149.69 78.39 156.36 73.92 162.68 69.02 C 148.36 61.92 133.76 55.39 119.29 48.60 C 116.19 47.08 112.86 46.12 109.49 45.47 M 400.37 59.46 C 391.58 63.89 382.41 67.57 373.87 72.47 C 385.01 81.10 395.08 91.17 403.26 102.68 C 404.21 103.69 404.83 105.35 406.31 105.67 C 410.33 91.84 414.05 77.89 418.13 64.06 C 419.27 60.36 419.73 56.50 419.89 52.64 C 412.80 52.77 406.77 56.94 400.37 59.46 M 189.46 150.68 C 179.53 153.30 172.23 162.84 171.99 173.04 C 171.99 177.74 173.02 182.53 175.43 186.60 C 179.17 193.23 186.48 197.63 194.05 198.12 C 202.72 199.06 211.52 194.42 216.23 187.19 C 222.41 177.78 221.05 164.02 212.65 156.36 C 206.58 150.57 197.51 148.57 189.46 150.68 M 330.48 150.73 C 325.86 152.11 321.65 154.82 318.56 158.53 C 310.71 167.65 311.40 182.68 319.99 191.08 C 325.46 197.12 334.30 199.30 342.15 197.69 C 354.88 194.89 364.21 180.91 360.48 168.10 C 357.59 155.25 343.08 146.84 330.48 150.73 M 259.02 168.98 C 255.84 170.00 251.00 171.78 251.33 175.84 C 254.08 182.93 261.30 186.88 267.82 189.99 C 266.80 196.60 265.73 203.93 260.54 208.70 C 258.63 209.95 256.44 210.65 254.40 211.64 C 254.46 212.18 254.57 213.24 254.63 213.78 C 262.83 214.09 268.71 205.56 268.58 197.97 C 269.37 199.04 269.80 200.28 270.00 201.59 C 272.30 207.25 276.40 212.29 282.31 214.38 C 283.21 213.44 284.18 212.57 285.23 211.80 C 282.34 210.36 278.80 209.78 276.85 206.95 C 273.09 201.82 271.52 195.24 271.55 188.95 C 277.25 187.10 282.31 183.59 286.35 179.20 C 288.61 177.12 288.50 172.80 285.56 171.38 C 277.61 166.76 267.73 166.96 259.02 168.98 Z" />
<path fill="#ffffff" opacity="1.00" d=" M 185.32 160.43 C 189.58 157.52 196.24 162.08 194.68 167.14 C 194.27 171.68 188.28 174.21 184.80 171.24 C 181.03 168.86 181.04 162.28 185.32 160.43 Z" />
<path fill="#ffffff" opacity="1.00" d=" M 326.29 160.33 C 330.30 157.95 336.32 161.13 335.95 165.97 C 336.27 168.82 333.74 170.56 332.05 172.40 C 329.26 172.31 326.05 172.13 324.20 169.70 C 322.30 166.74 322.93 161.99 326.29 160.33 Z" />
</g>
<g id="#f2bccbff">
<path fill="#f2bccb" opacity="1.00" d=" M 109.49 45.47 C 112.86 46.12 116.19 47.08 119.29 48.60 C 133.76 55.39 148.36 61.92 162.68 69.02 C 156.36 73.92 149.69 78.39 143.76 83.78 C 136.47 90.03 130.30 97.44 124.48 105.04 C 120.93 93.35 117.99 81.49 114.29 69.84 C 112.44 61.77 108.87 53.91 109.49 45.47 Z" />
<path fill="#f2bccb" opacity="1.00" d=" M 400.37 59.46 C 406.77 56.94 412.80 52.77 419.89 52.64 C 419.73 56.50 419.27 60.36 418.13 64.06 C 414.05 77.89 410.33 91.84 406.31 105.67 C 404.83 105.35 404.21 103.69 403.26 102.68 C 395.08 91.17 385.01 81.10 373.87 72.47 C 382.41 67.57 391.58 63.89 400.37 59.46 Z" />
</g>
<g id="#343333ff">
<path fill="#343333" opacity="1.00" d=" M 35.35 147.22 C 40.36 147.69 44.68 150.36 49.21 152.29 C 49.98 153.06 50.93 153.62 52.01 153.83 C 56.76 155.14 61.20 157.30 65.69 159.30 C 80.30 165.55 94.78 172.09 109.28 178.57 C 109.29 179.06 109.29 180.04 109.30 180.53 C 102.87 178.32 96.78 175.29 90.55 172.61 C 76.66 166.29 62.51 160.60 48.62 154.30 C 44.10 152.14 38.92 150.94 35.35 147.22 Z" />
<path fill="#343333" opacity="1.00" d=" M 189.46 150.68 C 197.51 148.57 206.58 150.57 212.65 156.36 C 221.05 164.02 222.41 177.78 216.23 187.19 C 211.52 194.42 202.72 199.06 194.05 198.12 C 186.48 197.63 179.17 193.23 175.43 186.60 C 173.02 182.53 171.99 177.74 171.99 173.04 C 172.23 162.84 179.53 153.30 189.46 150.68 M 185.32 160.43 C 181.04 162.28 181.03 168.86 184.80 171.24 C 188.28 174.21 194.27 171.68 194.68 167.14 C 196.24 162.08 189.58 157.52 185.32 160.43 Z" />
<path fill="#343333" opacity="1.00" d=" M 330.48 150.73 C 343.08 146.84 357.59 155.25 360.48 168.10 C 364.21 180.91 354.88 194.89 342.15 197.69 C 334.30 199.30 325.46 197.12 319.99 191.08 C 311.40 182.68 310.71 167.65 318.56 158.53 C 321.65 154.82 325.86 152.11 330.48 150.73 M 326.29 160.33 C 322.93 161.99 322.30 166.74 324.20 169.70 C 326.05 172.13 329.26 172.31 332.05 172.40 C 333.74 170.56 336.27 168.82 335.95 165.97 C 336.32 161.13 330.30 157.95 326.29 160.33 Z" />
<path fill="#343333" opacity="1.00" d=" M 5.64 167.69 C 16.45 168.84 26.88 172.26 37.64 173.80 C 59.38 178.58 81.26 182.71 102.93 187.79 C 104.45 188.01 105.54 188.84 106.23 190.27 C 100.37 189.60 94.71 187.85 88.92 186.78 C 64.77 181.90 40.67 176.80 16.55 171.78 C 12.78 170.87 8.54 170.57 5.64 167.69 Z" />
<path fill="#343333" opacity="1.00" d=" M 259.02 168.98 C 267.73 166.96 277.61 166.76 285.56 171.38 C 288.50 172.80 288.61 177.12 286.35 179.20 C 282.31 183.59 277.25 187.10 271.55 188.95 C 271.52 195.24 273.09 201.82 276.85 206.95 C 278.80 209.78 282.34 210.36 285.23 211.80 C 284.18 212.57 283.21 213.44 282.31 214.38 C 276.40 212.29 272.30 207.25 270.00 201.59 C 269.80 200.28 269.37 199.04 268.58 197.97 C 268.71 205.56 262.83 214.09 254.63 213.78 C 254.57 213.24 254.46 212.18 254.40 211.64 C 256.44 210.65 258.63 209.95 260.54 208.70 C 265.73 203.93 266.80 196.60 267.82 189.99 C 261.30 186.88 254.08 182.93 251.33 175.84 C 251.00 171.78 255.84 170.00 259.02 168.98 Z" />
<path fill="#343333" opacity="1.00" d=" M 486.06 169.97 C 489.40 168.89 492.74 167.10 496.36 167.79 C 494.49 169.36 492.20 170.28 489.91 171.05 C 472.58 176.72 455.35 182.69 438.09 188.59 C 431.76 190.18 425.85 193.51 419.25 193.91 C 424.22 189.34 431.59 189.13 437.54 186.32 C 453.77 181.04 469.87 175.36 486.06 169.97 Z" />
<path fill="#343333" opacity="1.00" d=" M 508.58 191.96 C 513.89 191.35 519.20 190.45 524.56 190.74 C 522.25 192.88 519.07 192.89 516.15 193.26 C 489.78 196.33 463.46 199.88 437.04 202.45 C 432.29 203.11 427.56 203.93 422.78 204.24 C 423.44 203.38 423.81 201.88 425.16 201.94 C 429.94 201.43 434.73 200.90 439.48 200.06 C 462.55 197.68 485.56 194.81 508.58 191.96 Z" />
<path fill="#343333" opacity="1.00" d=" M 32.13 194.53 C 49.31 196.19 66.55 197.24 83.76 198.51 C 90.56 199.54 97.68 198.75 104.27 200.75 C 103.11 201.85 101.57 202.26 100.01 201.95 C 94.35 201.47 88.71 200.83 83.04 200.51 C 71.67 200.00 60.35 198.73 48.99 198.08 C 43.09 197.55 37.15 197.46 31.30 196.50 C 31.58 195.85 31.85 195.19 32.13 194.53 Z" />
<path fill="#343333" opacity="1.00" d=" M 422.99 216.08 C 423.45 215.60 424.38 214.65 424.84 214.18 C 430.45 213.50 436.10 214.34 441.74 214.15 C 453.50 214.25 465.26 214.63 477.03 214.74 C 483.87 214.91 490.75 214.81 497.54 215.77 C 495.22 217.01 492.65 217.53 490.04 217.31 C 474.36 217.01 458.70 216.46 443.02 216.37 C 436.35 216.09 429.67 216.17 422.99 216.08 Z" />
</g>
</svg>
