<?xml version="1.0" encoding="UTF-8" ?>
<!DOCTYPE svg PUBLIC "-//W3C//DTD SVG 1.1//EN" "http://www.w3.org/Graphics/SVG/1.1/DTD/svg11.dtd">
<svg width="260pt" height="221pt" viewBox="0 0 260 221" version="1.1" xmlns="http://www.w3.org/2000/svg">
<g id="#ffffffff">
<path fill="#ffffff" opacity="1.00" d=" M 46.26 40.29 C 49.91 38.43 54.75 39.53 57.20 42.83 C 76.19 68.83 94.94 95.02 113.94 121.02 C 116.58 125.56 123.29 122.94 124.37 118.57 C 124.66 116.90 123.98 115.28 122.98 113.98 C 116.24 104.69 109.51 95.38 102.75 86.11 C 100.89 83.70 100.67 80.33 101.62 77.52 C 103.20 72.96 109.02 70.44 113.38 72.58 C 115.97 73.51 117.40 75.98 118.94 78.08 C 125.09 86.55 131.22 95.03 137.37 103.49 C 138.49 104.90 139.97 106.58 141.98 106.33 C 146.32 106.15 150.16 100.76 146.80 97.04 C 141.79 90.08 136.66 83.19 131.76 76.16 C 128.53 71.18 132.11 63.71 137.97 63.02 C 141.22 62.29 144.66 63.78 146.59 66.45 C 151.76 73.32 156.61 80.44 161.77 87.32 C 165.52 92.22 174.48 86.04 171.22 80.76 C 167.32 74.76 162.74 69.23 158.78 63.28 C 155.54 58.35 159.03 50.85 164.89 50.23 C 168.32 49.58 171.98 51.06 173.81 54.08 C 195.46 83.86 217.02 113.70 238.63 143.51 C 242.36 148.43 238.88 155.17 234.41 158.28 C 213.14 173.74 191.82 189.13 170.56 204.60 C 167.52 206.91 163.95 209.27 159.93 208.55 C 153.45 207.62 147.51 204.56 141.24 202.77 C 127.57 197.57 113.85 192.42 100.55 186.31 C 95.31 183.83 94.36 176.32 98.15 172.17 C 101.44 168.71 106.02 165.99 110.95 166.23 C 113.91 166.15 117.97 166.61 119.34 163.23 C 120.94 159.68 117.69 156.80 115.88 154.12 C 91.51 120.49 67.15 86.85 42.79 53.20 C 39.74 48.98 41.55 42.46 46.26 40.29 Z" />
</g>
<g id="#56d3bbff">
<path fill="#56d3bb" opacity="1.00" d=" M 37.87 5.33 C 51.43 1.12 66.88 4.34 77.91 13.19 C 86.12 19.90 92.29 29.45 93.89 40.03 C 95.62 50.02 94.21 60.74 88.92 69.49 C 87.18 67.14 85.46 64.77 83.74 62.40 C 87.49 52.96 87.56 41.96 83.18 32.72 C 78.76 23.28 70.20 15.69 60.03 13.06 C 52.53 10.81 44.35 11.29 37.09 14.14 C 25.38 18.56 16.41 29.50 14.47 41.87 C 13.54 49.36 14.13 57.28 17.71 64.05 C 23.89 76.86 38.48 85.72 52.75 83.85 C 54.57 86.35 56.23 88.96 58.08 91.44 C 45.96 94.22 32.73 90.60 22.97 83.06 C 7.72 71.53 1.44 49.52 8.87 31.81 C 13.68 19.07 24.77 9.00 37.87 5.33 Z" />
<path fill="#56d3bb" opacity="1.00" d=" M 32.82 21.81 C 41.75 15.75 53.92 14.90 63.62 19.61 C 77.31 25.61 85.39 42.86 80.00 57.02 C 78.62 55.14 77.17 53.31 75.80 51.41 C 78.75 36.47 65.13 21.16 49.95 22.20 C 36.47 21.61 24.59 33.74 24.33 47.01 C 23.56 59.57 33.25 71.05 45.31 73.70 C 46.65 75.53 47.92 77.41 49.25 79.25 C 35.75 79.24 23.16 69.11 19.94 56.05 C 16.19 43.44 21.92 28.99 32.82 21.81 Z" />
</g>
<g id="#726457ff">
<path fill="#726457" opacity="1.00" d=" M 38.52 33.49 C 46.35 27.04 59.24 28.57 65.19 36.82 C 68.75 41.67 72.25 46.56 75.80 51.41 C 77.17 53.31 78.62 55.14 80.00 57.02 C 81.25 58.81 82.44 60.64 83.74 62.40 C 85.46 64.77 87.18 67.14 88.92 69.49 C 90.03 71.01 91.08 72.58 92.13 74.14 C 94.17 69.22 98.08 64.99 103.14 63.16 C 109.15 60.79 116.29 61.90 121.39 65.81 C 123.83 59.60 129.18 54.42 135.89 53.26 C 139.98 52.19 144.23 53.24 148.02 54.87 C 149.70 47.40 156.17 41.11 163.88 40.31 C 170.47 39.34 177.41 42.16 181.38 47.53 C 203.23 77.68 225.12 107.80 246.91 138.00 C 253.48 146.87 249.26 159.81 240.86 165.91 C 218.44 182.16 196.02 198.42 173.59 214.66 C 167.33 219.18 158.99 219.47 151.89 216.95 C 133.18 210.60 114.71 203.51 96.67 195.45 C 88.22 191.84 83.75 181.38 86.72 172.73 C 89.42 164.58 97.06 157.01 106.14 157.56 C 90.03 135.59 74.20 113.40 58.08 91.44 C 56.23 88.96 54.57 86.35 52.75 83.85 C 51.59 82.31 50.41 80.79 49.25 79.25 C 47.92 77.41 46.65 75.53 45.31 73.70 C 41.74 68.61 37.90 63.72 34.40 58.59 C 29.08 50.82 30.97 39.14 38.52 33.49 M 46.26 40.29 C 41.55 42.46 39.74 48.98 42.79 53.20 C 67.15 86.85 91.51 120.49 115.88 154.12 C 117.69 156.80 120.94 159.68 119.34 163.23 C 117.97 166.61 113.91 166.15 110.95 166.23 C 106.02 165.99 101.44 168.71 98.15 172.17 C 94.36 176.32 95.31 183.83 100.55 186.31 C 113.85 192.42 127.57 197.57 141.24 202.77 C 147.51 204.56 153.45 207.62 159.93 208.55 C 163.95 209.27 167.52 206.91 170.56 204.60 C 191.82 189.13 213.14 173.74 234.41 158.28 C 238.88 155.17 242.36 148.43 238.63 143.51 C 217.02 113.70 195.46 83.86 173.81 54.08 C 171.98 51.06 168.32 49.58 164.89 50.23 C 159.03 50.85 155.54 58.35 158.78 63.28 C 162.74 69.23 167.32 74.76 171.22 80.76 C 174.48 86.04 165.52 92.22 161.77 87.32 C 156.61 80.44 151.76 73.32 146.59 66.45 C 144.66 63.78 141.22 62.29 137.97 63.02 C 132.11 63.71 128.53 71.18 131.76 76.16 C 136.66 83.19 141.79 90.08 146.80 97.04 C 150.16 100.76 146.32 106.15 141.98 106.33 C 139.97 106.58 138.49 104.90 137.37 103.49 C 131.22 95.03 125.09 86.55 118.94 78.08 C 117.40 75.98 115.97 73.51 113.38 72.58 C 109.02 70.44 103.20 72.96 101.62 77.52 C 100.67 80.33 100.89 83.70 102.75 86.11 C 109.51 95.38 116.24 104.69 122.98 113.98 C 123.98 115.28 124.66 116.90 124.37 118.57 C 123.29 122.94 116.58 125.56 113.94 121.02 C 94.94 95.02 76.19 68.83 57.20 42.83 C 54.75 39.53 49.91 38.43 46.26 40.29 Z" />
</g>
</svg>
